<svg width="750" height="500" viewBox="0 0 750 500" fill="none" xmlns="http://www.w3.org/2000/svg">
<path d="M628.723 273.216C628.723 297.904 609.443 318.085 585.117 319.542C584.988 319.55 584.859 319.558 584.731 319.566C583.926 319.598 583.13 319.622 582.317 319.622C581.649 319.622 580.981 319.606 580.321 319.582C580.184 319.574 580.039 319.574 579.902 319.566C555.399 318.303 535.91 298.033 535.91 273.216C535.91 247.587 556.687 226.81 582.316 226.81C607.945 226.81 628.723 247.587 628.723 273.216Z" fill="#2F2E41"/>
<path d="M582.547 258.863L586.202 418.19H578.434L582.089 258.863H582.547Z" fill="#3E424E"/>
<path d="M547.514 277.505L583.986 312.077L581.283 312.046L617.006 279.602L617.233 279.834L583.954 314.781L582.584 316.221L581.251 314.75L547.514 277.505Z" fill="#3E424E"/>
<path d="M567.028 268.452L583.514 282.947H581.522L597.542 268.79L597.67 268.919L583.514 284.938L582.516 286.068L581.522 284.938L567.028 268.452Z" fill="#3E424E"/>
<path d="M212.334 229.667H115.667V416.334H212.334V229.667Z" fill="#2F2E41"/>
<path d="M205 245.667H126.333V274.334H205V245.667Z" fill="black"/>
<path d="M205 293H126.333V321.667H205V293Z" fill="black"/>
<path d="M118.834 233C118.005 233 117.334 232.329 117.334 231.5V219C117.334 218.171 118.005 217.5 118.834 217.5H212.334C213.163 217.5 213.834 218.171 213.834 219C213.834 219.829 213.163 220.5 212.334 220.5H120.334V231.5C120.334 232.329 119.662 233 118.834 233Z" fill="#2F2E41"/>
<path d="M126.5 234.333C125.671 234.333 125 233.662 125 232.833V219C125 218.171 125.671 217.5 126.5 217.5C127.329 217.5 128 218.171 128 219V232.833C128 233.662 127.329 234.333 126.5 234.333Z" fill="#2F2E41"/>
<path d="M135.667 234C134.838 234 134.167 233.329 134.167 232.5V219.667C134.167 218.838 134.838 218.167 135.667 218.167C136.496 218.167 137.167 218.838 137.167 219.667V232.5C137.167 233.329 136.495 234 135.667 234Z" fill="#2F2E41"/>
<path d="M145.167 234.5C144.338 234.5 143.667 233.829 143.667 233V219.667C143.667 218.838 144.338 218.167 145.167 218.167C145.996 218.167 146.667 218.838 146.667 219.667V233C146.667 233.829 145.995 234.5 145.167 234.5Z" fill="#2F2E41"/>
<path d="M156 234.333C155.171 234.333 154.5 233.662 154.5 232.833V219.5C154.5 218.671 155.171 218 156 218C156.829 218 157.5 218.671 157.5 219.5V232.833C157.5 233.662 156.829 234.333 156 234.333Z" fill="#2F2E41"/>
<path d="M164.833 233.333C164.004 233.333 163.333 232.662 163.333 231.833V220.166C163.333 219.337 164.004 218.666 164.833 218.666C165.662 218.666 166.333 219.337 166.333 220.166V231.833C166.333 232.662 165.662 233.333 164.833 233.333Z" fill="#2F2E41"/>
<path d="M173.5 234C172.671 234 172 233.329 172 232.5V219.833C172 219.004 172.671 218.333 173.5 218.333C174.329 218.333 175 219.004 175 219.833V232.5C175 233.329 174.329 234 173.5 234Z" fill="#2F2E41"/>
<path d="M184.833 233.667C184.004 233.667 183.333 232.996 183.333 232.167V219.5C183.333 218.671 184.004 218 184.833 218C185.662 218 186.333 218.671 186.333 219.5V232.167C186.333 232.995 185.662 233.667 184.833 233.667Z" fill="#2F2E41"/>
<path d="M193.333 233.333C192.504 233.333 191.833 232.662 191.833 231.833V220.5C191.833 219.671 192.504 219 193.333 219C194.162 219 194.833 219.671 194.833 220.5V231.833C194.833 232.662 194.162 233.333 193.333 233.333Z" fill="#2F2E41"/>
<path d="M204 233C203.171 233 202.5 232.329 202.5 231.5V220.167C202.5 219.338 203.171 218.667 204 218.667C204.829 218.667 205.5 219.338 205.5 220.167V231.5C205.5 232.329 204.829 233 204 233Z" fill="#2F2E41"/>
<path d="M308.334 171.667H211.667V416.334H308.334V171.667Z" fill="#2F2E41"/>
<path d="M242.334 181.667H218.667V205.334H242.334V181.667Z" fill="black"/>
<path d="M271.372 181.667H247.705V205.334H271.372V181.667Z" fill="black"/>
<path d="M299.68 181.667H276.013V205.334H299.68V181.667Z" fill="black"/>
<path d="M242.334 210.333H218.667V234H242.334V210.333Z" fill="black"/>
<path d="M271.372 210.333H247.705V234H271.372V210.333Z" fill="black"/>
<path d="M299.68 210.333H276.013V234H299.68V210.333Z" fill="black"/>
<path d="M242.334 238.667H218.667V262.334H242.334V238.667Z" fill="black"/>
<path d="M271.372 238.667H247.705V262.334H271.372V238.667Z" fill="black"/>
<path d="M299.68 238.667H276.013V262.334H299.68V238.667Z" fill="black"/>
<path d="M242.334 267.333H218.667V291H242.334V267.333Z" fill="black"/>
<path d="M271.372 267.333H247.705V291H271.372V267.333Z" fill="black"/>
<path d="M299.68 267.333H276.013V291H299.68V267.333Z" fill="black"/>
<path d="M242.334 296H218.667V319.667H242.334V296Z" fill="black"/>
<path d="M271.372 296H247.705V319.667H271.372V296Z" fill="black"/>
<path d="M299.68 296H276.013V319.667H299.68V296Z" fill="black"/>
<path d="M242.334 324.333H218.667V348H242.334V324.333Z" fill="black"/>
<path d="M271.372 324.333H247.705V348H271.372V324.333Z" fill="black"/>
<path d="M299.68 324.333H276.013V348H299.68V324.333Z" fill="black"/>
<path d="M526.139 138H416.171V416.333H526.139V138Z" fill="#2F2E41"/>
<path d="M451.057 149.376H424.134V176.299H451.057V149.376Z" fill="black"/>
<path d="M484.091 149.376H457.168V176.299H484.091V149.376Z" fill="black"/>
<path d="M516.294 149.376H489.371V176.299H516.294V149.376Z" fill="black"/>
<path d="M451.057 181.987H424.134V208.91H451.057V181.987Z" fill="black"/>
<path d="M484.091 181.987H457.168V208.91H484.091V181.987Z" fill="black"/>
<path d="M516.294 181.987H489.371V208.91H516.294V181.987Z" fill="black"/>
<path d="M451.057 214.219H424.134V241.142H451.057V214.219Z" fill="black"/>
<path d="M484.091 214.219H457.168V241.142H484.091V214.219Z" fill="black"/>
<path d="M516.294 214.219H489.371V241.142H516.294V214.219Z" fill="black"/>
<path d="M451.057 246.831H424.134V273.754H451.057V246.831Z" fill="black"/>
<path d="M484.091 246.831H457.168V273.754H484.091V246.831Z" fill="black"/>
<path d="M516.294 246.831H489.371V273.754H516.294V246.831Z" fill="black"/>
<path d="M451.057 279.442H424.134V306.365H451.057V279.442Z" fill="black"/>
<path d="M484.091 279.442H457.168V306.365H484.091V279.442Z" fill="black"/>
<path d="M516.294 279.442H489.371V306.365H516.294V279.442Z" fill="black"/>
<path d="M451.057 311.674H424.134V338.597H451.057V311.674Z" fill="black"/>
<path d="M484.091 311.674H457.168V338.597H484.091V311.674Z" fill="black"/>
<path d="M516.294 311.674H489.371V338.597H516.294V311.674Z" fill="black"/>
<path d="M639.71 412.172V443.783H161.737V400.995H636.59C638.082 404.512 639.146 408.259 639.71 412.172Z" fill="#5D5C77"/>
<path d="M311.318 402.738C311.318 417.891 306.81 432.001 299.056 443.783H173.999C166.245 432.001 161.737 417.891 161.737 402.738C161.737 402.154 161.747 401.569 161.758 400.995C162.687 360.492 195.8 327.942 236.522 327.942C277.244 327.942 310.368 360.492 311.297 400.995C311.307 401.569 311.318 402.154 311.318 402.738Z" fill="#5D5C77"/>
<path d="M465.381 389.673C465.381 409.65 459.437 428.251 449.215 443.784H284.352C274.13 428.251 268.186 409.65 268.186 389.673C268.186 388.903 268.2 388.132 268.213 387.375C269.437 333.98 313.092 291.068 366.776 291.068C420.46 291.068 464.128 333.979 465.353 387.375C465.367 388.132 465.381 388.902 465.381 389.673Z" fill="#5D5C77"/>
<path d="M580.873 409.887C580.873 422.401 577.15 434.053 570.746 443.783H467.473C461.069 434.053 457.346 422.401 457.346 409.887C457.346 409.404 457.355 408.922 457.363 408.448C458.13 375 485.476 348.119 519.105 348.119C552.734 348.119 580.089 375 580.856 408.448C580.865 408.922 580.873 409.404 580.873 409.887Z" fill="#5D5C77"/>
<path d="M640.18 418.757C640.18 420.99 640.023 423.172 639.71 425.321C638.739 432.063 636.297 438.335 632.707 443.783H556.471C551.744 436.603 548.999 428.004 548.999 418.757C548.999 418.402 549.009 418.047 549.009 417.703C549.145 411.786 550.407 406.15 552.589 400.995C559.518 384.642 575.715 373.162 594.584 373.162C613.463 373.162 629.66 384.642 636.589 400.995C638.081 404.512 639.146 408.258 639.709 412.172C639.97 413.977 640.126 415.825 640.168 417.703C640.18 418.048 640.18 418.403 640.18 418.757Z" fill="#5D5C77"/>
<path d="M278.08 428.009V443.779H39.6299V422.439H276.52C276.88 423.279 277.18 424.149 277.44 425.039C277.63 425.689 277.79 426.359 277.91 427.039C277.98 427.359 278.03 427.679 278.08 428.009Z" fill="#5D5C77"/>
<path d="M114.25 423.31C114.25 423.89 114.24 424.47 114.2 425.04C114.18 425.71 114.13 426.38 114.06 427.04C113.89 428.87 113.57 430.65 113.14 432.39C112.8 433.76 112.38 435.09 111.9 436.39C110.92 439.01 109.66 441.48 108.14 443.78H45.7499C44.2399 441.48 42.9699 439.01 41.9899 436.39C41.4999 435.09 41.0899 433.76 40.7499 432.39C40.3099 430.65 39.9999 428.87 39.8199 427.04C39.7499 426.38 39.6999 425.71 39.6799 425.04C39.6399 424.47 39.6299 423.89 39.6299 423.31C39.6299 423.02 39.6399 422.72 39.6499 422.44C39.6899 420.64 39.8599 418.88 40.1499 417.15C40.1999 416.82 40.2599 416.48 40.3299 416.15C43.6599 398.96 58.7899 385.99 76.9399 385.99C85.1199 385.99 92.6799 388.62 98.8199 393.08C106.33 398.52 111.73 406.7 113.56 416.15C113.63 416.48 113.69 416.82 113.74 417.15C114.03 418.88 114.2 420.64 114.24 422.44C114.25 422.72 114.25 423.02 114.25 423.31Z" fill="#5D5C77"/>
<path d="M191.11 416.789C191.11 426.755 188.145 436.034 183.046 443.783H100.802C95.7023 436.034 92.7383 426.755 92.7383 416.789C92.7383 416.405 92.7453 416.02 92.7523 415.643C93.3633 389.006 115.14 367.599 141.921 367.599C168.702 367.599 190.486 389.006 191.097 415.643C191.104 416.021 191.11 416.405 191.11 416.789Z" fill="#5D5C77"/>
<path d="M248.725 426.874C248.725 433.117 246.868 438.929 243.673 443.784H192.153C188.959 438.93 187.101 433.117 187.101 426.874C187.101 426.633 187.105 426.393 187.109 426.156C187.492 409.47 201.134 396.06 217.91 396.06C234.686 396.06 248.332 409.47 248.715 426.156C248.721 426.392 248.725 426.633 248.725 426.874Z" fill="#5D5C77"/>
<path d="M278.311 431.299C278.311 432.413 278.233 433.501 278.077 434.574C277.593 437.937 276.375 441.066 274.584 443.784H236.553C234.195 440.202 232.825 435.912 232.825 431.3C232.825 431.123 232.83 430.946 232.83 430.774C232.898 427.822 233.528 425.011 234.616 422.439C238.073 414.281 246.153 408.554 255.566 408.554C264.984 408.554 273.064 414.281 276.521 422.439C277.266 424.194 277.797 426.063 278.078 428.015C278.208 428.916 278.286 429.837 278.307 430.774C278.311 430.945 278.311 431.122 278.311 431.299Z" fill="#5D5C77"/>
<path d="M709.32 422.439V443.779H470.88V428.009C470.93 427.679 470.98 427.359 471.05 427.039C471.17 426.359 471.33 425.689 471.51 425.039C471.77 424.149 472.08 423.279 472.44 422.439H709.32Z" fill="#5D5C77"/>
<path d="M709.319 423.31C709.319 423.89 709.309 424.47 709.269 425.04C709.249 425.71 709.199 426.38 709.129 427.04C708.949 428.87 708.639 430.65 708.199 432.39C707.859 433.76 707.449 435.09 706.959 436.39C705.979 439.01 704.719 441.48 703.199 443.78H640.819C640.429 443.19 640.059 442.59 639.709 441.98C638.669 440.2 637.789 438.34 637.059 436.39C636.989 436.21 636.929 436.03 636.869 435.85C636.459 434.72 636.109 433.57 635.819 432.39C635.379 430.65 635.069 428.87 634.889 427.04C634.819 426.38 634.769 425.71 634.749 425.04C634.709 424.47 634.699 423.89 634.699 423.31C634.699 423.02 634.709 422.72 634.709 422.44C634.749 420.64 634.919 418.88 635.209 417.15C635.259 416.82 635.319 416.48 635.389 416.15C636.029 412.83 637.119 409.67 638.579 406.73C641.279 401.3 645.259 396.61 650.139 393.08C656.279 388.62 663.839 385.99 672.009 385.99C690.169 385.99 705.299 398.96 708.629 416.15C708.699 416.48 708.759 416.82 708.809 417.15C709.099 418.88 709.269 420.64 709.309 422.44C709.319 422.72 709.319 423.02 709.319 423.31Z" fill="#5D5C77"/>
<path d="M557.846 416.789C557.846 426.755 560.811 436.034 565.91 443.783H648.154C653.253 436.034 656.219 426.755 656.219 416.789C656.219 416.405 656.212 416.02 656.205 415.643C655.594 389.006 633.817 367.599 607.036 367.599C580.255 367.599 558.471 389.006 557.86 415.643C557.853 416.021 557.846 416.405 557.846 416.789Z" fill="#5D5C77"/>
<path d="M500.23 426.874C500.23 433.117 502.087 438.929 505.282 443.784H556.802C559.996 438.93 561.854 433.117 561.854 426.874C561.854 426.633 561.85 426.393 561.846 426.156C561.463 409.47 547.822 396.06 531.046 396.06C514.27 396.06 500.623 409.47 500.24 426.156C500.235 426.392 500.23 426.633 500.23 426.874Z" fill="#5D5C77"/>
<path d="M470.645 431.299C470.645 432.413 470.723 433.501 470.879 434.574C471.363 437.937 472.581 441.066 474.372 443.784H512.403C514.761 440.202 516.131 435.912 516.131 431.3C516.131 431.123 516.126 430.946 516.126 430.774C516.058 427.822 515.428 425.011 514.34 422.439C510.883 414.281 502.803 408.554 493.39 408.554C483.972 408.554 475.892 414.281 472.435 422.439C471.69 424.194 471.159 426.063 470.878 428.015C470.748 428.916 470.67 429.837 470.649 430.774C470.645 430.945 470.645 431.122 470.645 431.299Z" fill="#5D5C77"/>
<path d="M709.32 432.39H39.6299V436.39H709.32V432.39Z" fill="#7E7D94"/>
<path opacity="0.5" d="M709.32 425.04H39.6299V427.04H709.32V425.04Z" fill="#7E7D94"/>
<path d="M310.003 236.805C310.003 267.485 286.043 292.565 255.813 294.375C255.653 294.385 255.493 294.395 255.333 294.405C254.333 294.445 253.343 294.475 252.333 294.475C251.503 294.475 250.673 294.455 249.853 294.425C249.683 294.415 249.503 294.415 249.333 294.405C218.883 292.835 194.663 267.645 194.663 236.805C194.663 204.955 220.483 179.135 252.333 179.135C284.183 179.135 310.003 204.955 310.003 236.805Z" fill="#3E424E"/>
<path d="M257.139 417.235C257.142 417.145 257.162 417.06 257.16 416.969L252.618 218.969C252.614 218.818 252.492 218.694 252.34 218.691C252.183 218.687 252.052 218.812 252.049 218.969L247.507 416.969C247.506 417.037 247.505 417.122 247.507 417.19C247.507 417.205 247.512 417.219 247.513 417.235H257.139Z" fill="#1B193B"/>
<path d="M209.083 242.135L254.407 285.099L251.048 285.06L295.442 244.741C295.524 244.666 295.652 244.672 295.727 244.755C295.798 244.834 295.796 244.954 295.724 245.03L254.368 288.46C253.497 289.378 252.048 289.416 251.13 288.545C251.09 288.507 251.045 288.461 251.009 288.421L209.083 242.135Z" fill="#1B193B"/>
<path d="M233.333 230.885L253.82 248.897H251.345L271.252 231.305C271.299 231.264 271.37 231.268 271.412 231.315C271.45 231.358 271.449 231.423 271.412 231.465L253.82 251.373C253.219 252.056 252.178 252.123 251.494 251.522C251.444 251.478 251.388 251.421 251.345 251.373L233.333 230.885Z" fill="#1B193B"/>
<path d="M203.493 225.635C203.8 222.645 204.612 219.716 205.653 216.881C206.692 214.04 208.025 211.297 209.599 208.686C212.752 203.471 216.984 198.848 221.96 195.248C222.59 194.809 223.199 194.34 223.846 193.926L225.799 192.707C226.46 192.317 227.15 191.979 227.824 191.614C228.494 191.24 229.189 190.917 229.89 190.609C232.652 189.278 235.586 188.362 238.529 187.614C244.452 186.219 250.549 185.838 256.495 186.464L256.491 186.805C250.563 187.312 244.747 188.287 239.221 190.067C233.7 191.842 228.51 194.467 223.914 197.897C221.619 199.616 219.487 201.543 217.476 203.594C215.494 205.673 213.638 207.888 211.956 210.245C208.559 214.943 205.744 220.102 203.493 225.635Z" fill="#7E7D94"/>
<path d="M252.333 144.601L235.328 122.204C238.508 115.694 240.298 108.38 240.298 100.646C240.298 73.481 218.276 51.459 191.111 51.459C163.946 51.459 141.924 73.481 141.924 100.646C141.924 127.811 163.946 149.833 191.111 149.833C203.109 149.833 214.099 145.532 222.636 138.395L252.333 144.601Z" fill="#2F2E41"/>
<path d="M190.755 71.0259L168.205 97.9769H162.122L169.301 89.3949L175.214 82.3309L190.755 63.7549L206.307 82.3309L212.21 89.3849L219.4 97.9769H213.314L190.755 71.0259ZM212.209 99.4829L190.755 73.8509L169.301 99.4919V125.239H184.349V106.226H197.161V125.239H212.209V99.4829Z" fill="#FEFEFE"/>
<path d="M407.01 408.375L549.735 151.366C550.001 150.887 550.604 150.715 551.082 150.981C551.547 151.239 551.722 151.818 551.488 152.29L420.282 415.365C418.433 419.073 413.928 420.579 410.221 418.73C406.513 416.881 405.007 412.376 406.856 408.669C406.901 408.578 406.961 408.463 407.01 408.375Z" fill="#1B193B"/>
<path d="M606.465 207.188C636.94 176.713 636.94 127.303 606.465 96.8271C575.989 66.3517 526.579 66.3517 496.104 96.8271C465.628 127.303 465.628 176.713 496.104 207.188C526.579 237.664 575.989 237.664 606.465 207.188Z" fill="#7E7D94"/>
<path d="M551.378 222.325C550.048 222.325 548.717 222.288 547.378 222.213C528.625 221.169 511.401 212.884 498.879 198.884C486.357 184.885 480.035 166.847 481.08 148.094C482.125 129.341 490.409 112.117 504.409 99.5946C518.408 87.0716 536.441 80.7456 555.199 81.7956C573.952 82.8396 591.176 91.1246 603.698 105.124C616.22 119.123 622.541 137.161 621.496 155.914C620.452 174.667 612.167 191.891 598.168 204.413C585.168 216.044 568.682 222.325 551.378 222.325ZM551.207 87.6856C535.378 87.6856 520.301 93.4306 508.409 104.068C495.604 115.522 488.026 131.276 487.07 148.429C486.115 165.582 491.897 182.08 503.351 194.885C514.804 207.69 530.558 215.268 547.711 216.223C564.862 217.179 581.362 211.397 594.167 199.943C620.6 176.299 622.869 135.559 599.225 109.126C587.772 96.3206 572.018 88.7436 554.865 87.7886C553.642 87.7196 552.422 87.6856 551.207 87.6856Z" fill="#FEFEFE"/>
<mask id="mask0_2090_3304" style="mask-type:luminance" maskUnits="userSpaceOnUse" x="483" y="84" width="136" height="136">
<path d="M598.884 199.608C625.172 173.319 625.172 130.697 598.884 104.408C572.595 78.1193 529.973 78.1193 503.684 104.408C477.395 130.697 477.395 173.319 503.684 199.608C529.973 225.896 572.595 225.896 598.884 199.608Z" fill="white"/>
</mask>
<g mask="url(#mask0_2090_3304)">
<path d="M561.577 216.321L599.98 177.918L515.977 93.9155L472.47 127.214L561.577 216.321Z" fill="#EFEFEF"/>
<path d="M466.42 131.844L447.972 145.963V235.822H475.361L522.88 188.303L466.42 131.844Z" fill="#DBD7D7"/>
<path d="M575.423 142.682L645.599 72.5057V72.1807H544.376L522.026 89.2857L575.423 142.682Z" fill="#DBD7D7"/>
<path d="M645.6 212.859V83.1855L580.764 148.022L645.6 212.859Z" fill="#EFEFEF"/>
<path d="M447.972 72.1807V136.452L531.95 72.1807H447.972Z" fill="#DBD7D7"/>
<path d="M486.041 235.822H570.398L528.219 193.643L486.041 235.822Z" fill="#EFEFEF"/>
<path d="M566.917 221.661L581.078 235.822H645.6V223.539L605.32 183.258L566.917 221.661Z" fill="#DBD7D7"/>
<path d="M544.382 72.1807L522.026 89.2877L517.356 84.6177L512.019 89.9547L515.972 93.9197L472.468 127.215L469.523 124.269L464.185 129.607L466.426 131.847L447.972 145.958V136.454L531.945 72.1807H544.382Z" fill="white"/>
<path d="M581.076 235.822H570.401L528.219 193.641L529.944 191.916L524.607 186.579L522.882 188.303L466.426 131.847L472.468 127.215L561.577 216.324L557.964 219.936L563.302 225.274L566.914 221.661L581.076 235.822Z" fill="white"/>
<path d="M645.6 212.862V223.536L605.32 183.256L609.247 179.328L603.91 173.991L599.982 177.918L515.972 93.9196L522.026 89.2876L575.424 142.685L573.07 145.039L578.407 150.376L580.761 148.022L645.6 212.862Z" fill="white"/>
<path d="M512.018 89.9557L515.977 93.9157L522.027 89.2857L517.358 84.6157L512.018 89.9557Z" fill="white"/>
<path d="M645.6 72.5078V83.1828L580.761 148.022L575.424 142.685L645.6 72.5078Z" fill="white"/>
<path d="M575.418 142.685L573.062 145.041L578.403 150.381L580.758 148.025L575.418 142.685Z" fill="white"/>
<path d="M599.974 177.92L561.572 216.322L566.912 221.662L605.314 183.26L599.974 177.92Z" fill="white"/>
<path d="M561.571 216.323L557.957 219.938L563.297 225.278L566.911 221.664L561.571 216.323Z" fill="white"/>
<path d="M603.9 173.987L599.972 177.916L605.312 183.256L609.24 179.327L603.9 173.987Z" fill="white"/>
<path d="M528.218 193.641L486.037 235.822H475.362L522.881 188.303L528.218 193.641Z" fill="white"/>
<path d="M524.6 186.579L522.874 188.305L528.214 193.645L529.94 191.919L524.6 186.579Z" fill="white"/>
</g>
<path d="M550.715 233.369C549.173 233.369 547.629 233.326 546.077 233.24C524.331 232.029 504.358 222.422 489.839 206.189C475.319 189.956 467.988 169.04 469.199 147.294C470.41 125.548 480.017 105.575 496.251 91.0547C512.484 76.5337 533.4 69.2007 555.146 70.4157C576.892 71.6267 596.865 81.2337 611.384 97.4667C625.905 113.7 633.235 134.616 632.024 156.362C630.813 178.108 621.206 198.081 604.972 212.601C589.897 226.085 570.781 233.368 550.715 233.369ZM550.517 77.2867C532.172 77.2867 514.7 83.9447 500.917 96.2717C486.078 109.545 477.296 127.804 476.188 147.683C475.081 167.562 481.782 186.682 495.055 201.522C508.328 216.361 526.586 225.144 546.466 226.251C566.344 227.358 585.465 220.658 600.305 207.384C615.145 194.111 623.927 175.853 625.033 155.973C626.141 136.094 619.439 116.974 606.166 102.134C592.893 87.2947 574.635 78.5117 554.755 77.4047C553.339 77.3257 551.925 77.2867 550.517 77.2867Z" fill="#1B193B"/>
<path d="M608.776 99.7998C615.848 107.181 621.422 116.083 624.958 125.773C628.518 135.453 630.066 145.893 629.509 156.221C628.98 166.553 626.289 176.771 621.699 186.02C617.108 195.273 610.544 203.501 602.639 209.991C609.959 202.852 615.945 194.468 620.191 185.296C624.463 176.134 626.94 166.181 627.548 156.112C627.837 151.076 627.636 146.012 626.983 141.007C626.31 136.004 625.173 131.058 623.574 126.257C620.374 116.655 615.32 107.653 608.776 99.7998Z" fill="white"/>
<path d="M546.725 126.981C546.771 126.322 546.642 125.679 546.515 125.042C544.721 116.029 536.702 110.224 527.558 111.445C517.048 112.849 510.766 123.665 513.891 132.641C515.174 136.326 516.782 139.852 518.596 143.294C520.801 147.476 523.168 151.565 525.747 155.529C526.924 157.541 528.256 159.452 529.512 161.413C529.855 161.949 530 161.963 530.361 161.419C533.738 156.329 536.978 151.156 539.926 145.804C542.265 141.558 544.492 137.255 545.967 132.614C546.546 130.787 546.988 128.928 546.725 126.981ZM541.169 119.199C541.361 119.242 541.398 119.397 541.412 119.563C541.424 119.575 541.436 119.588 541.448 119.6C541.436 119.588 541.423 119.576 541.411 119.564C541.243 119.551 541.091 119.509 541.05 119.317C541.035 119.237 541.088 119.181 541.169 119.199ZM517.233 135.789C517.4 135.743 517.31 135.881 517.34 135.934C517.305 135.885 517.269 135.837 517.233 135.789ZM517.342 135.941C517.376 135.989 517.41 136.037 517.445 136.085C517.282 136.126 517.37 135.993 517.342 135.941ZM521.997 127.378C521.991 123.003 525.583 119.438 529.989 119.444C534.317 119.451 537.895 123.071 537.868 127.417C537.841 131.784 534.282 135.315 529.915 135.308C525.555 135.301 522.003 131.743 521.997 127.378Z" fill="#FC542D"/>
<path d="M541.17 119.199C541.089 119.181 541.035 119.237 541.052 119.317C541.092 119.509 541.245 119.551 541.413 119.564C541.425 119.576 541.438 119.588 541.45 119.6C541.438 119.588 541.426 119.576 541.414 119.563C541.4 119.397 541.362 119.241 541.17 119.199Z" fill="#004CAD"/>
<path d="M517.341 135.933V135.938L517.343 135.941V135.936L517.341 135.933Z" fill="#004CAD"/>
<path d="M517.233 135.789C517.268 135.837 517.304 135.885 517.34 135.934C517.31 135.881 517.4 135.743 517.233 135.789Z" fill="#004CAD"/>
<path d="M517.446 136.085C517.412 136.037 517.378 135.989 517.343 135.941C517.371 135.993 517.283 136.126 517.446 136.085Z" fill="#004CAD"/>
<path d="M541.612 119.737C541.592 119.726 541.573 119.714 541.554 119.702C541.519 119.668 541.485 119.634 541.45 119.599C541.484 119.634 541.518 119.668 541.552 119.703C541.572 119.715 541.592 119.726 541.612 119.737Z" fill="#004CAD"/>
<path d="M595.763 58.3888C595.834 57.3888 595.636 56.4118 595.444 55.4448C592.72 41.7598 580.547 32.9468 566.663 34.8008C550.706 36.9318 541.168 53.3538 545.913 66.9818C547.861 72.5758 550.302 77.9298 553.056 83.1548C556.403 89.5048 559.998 95.7118 563.913 101.731C565.699 104.785 567.723 107.687 569.629 110.665C570.15 111.478 570.37 111.499 570.918 110.674C576.044 102.946 580.965 95.0918 585.44 86.9668C588.991 80.5198 592.372 73.9868 594.611 66.9408C595.492 64.1668 596.163 61.3438 595.763 58.3888ZM587.33 46.5728C587.621 46.6378 587.677 46.8738 587.698 47.1258C587.716 47.1448 587.736 47.1628 587.754 47.1818C587.735 47.1638 587.716 47.1448 587.697 47.1268C587.442 47.1068 587.211 47.0438 587.15 46.7518C587.125 46.6308 587.206 46.5458 587.33 46.5728ZM550.989 71.7598C551.242 71.6898 551.105 71.8998 551.15 71.9788C551.096 71.9068 551.043 71.8338 550.989 71.7598ZM551.153 71.9918C551.205 72.0648 551.257 72.1378 551.309 72.2108C551.062 72.2718 551.196 72.0708 551.153 71.9918ZM558.221 58.9898C558.212 52.3478 563.665 46.9348 570.354 46.9448C576.925 46.9548 582.359 52.4518 582.317 59.0498C582.275 65.6798 576.872 71.0398 570.241 71.0298C563.622 71.0208 558.23 65.6188 558.221 58.9898Z" fill="#FFDA08"/>
<path d="M587.329 46.5729C587.206 46.5459 587.125 46.6309 587.15 46.7519C587.211 47.0439 587.443 47.1069 587.698 47.1269C587.717 47.1449 587.735 47.1639 587.754 47.1819C587.736 47.1629 587.717 47.1449 587.699 47.1259C587.677 46.8729 587.62 46.6379 587.329 46.5729Z" fill="#FEFEFE"/>
<path d="M551.15 71.98V71.987L551.153 71.992V71.984L551.15 71.98Z" fill="#FEFEFE"/>
<path d="M550.988 71.7597C551.042 71.8327 551.096 71.9057 551.15 71.9787C551.105 71.8997 551.241 71.6897 550.988 71.7597Z" fill="#FEFEFE"/>
<path d="M551.309 72.2107C551.257 72.1377 551.205 72.0647 551.153 71.9917C551.196 72.0707 551.062 72.2717 551.309 72.2107Z" fill="#FEFEFE"/>
<path d="M588 47.3901C587.97 47.3731 587.941 47.3551 587.911 47.3381C587.858 47.2861 587.806 47.2341 587.753 47.1821C587.805 47.2341 587.857 47.2871 587.909 47.3401C587.939 47.3561 587.969 47.3731 588 47.3901Z" fill="#FEFEFE"/>
<path d="M290.33 194.904L273.479 162.591L266.373 163.107L281.925 208.347L290.33 194.904Z" fill="#F58C62"/>
<path d="M311.671 165.051C308.545 167.126 289.594 190.493 289.594 190.493L274.759 165.045C274.101 165.402 264.449 173.299 264.449 173.299L281.925 208.348C283.284 212.291 290.499 216.167 296.103 211.771C298.333 210.667 322.539 182 322.539 182C322.539 182 316.207 162.039 311.671 165.051Z" fill="#EDB200"/>
<path d="M271.603 159.539L271.023 149.211C270.968 148.226 270.069 147.508 269.096 147.672L262.079 148.85C261.576 148.935 261.222 149.392 261.266 149.9L262.355 162.44C262.44 163.419 263.355 164.109 264.32 163.922L270.269 162.765C271.047 162.614 271.609 161.932 271.608 161.139L271.607 159.633C271.605 159.601 271.604 159.57 271.603 159.539Z" fill="#1B193B"/>
<path d="M269.97 161.492L269.763 148.902L262.321 149.783L263.585 162.568L269.97 161.492Z" fill="#FEFEFE"/>
<path d="M260.973 153.111C261.226 153.119 266.795 153.298 266.726 154.639C266.658 155.98 261.291 155.021 260.512 154.819C259.733 154.616 259.454 153.062 260.973 153.111Z" fill="#F58C62"/>
<path d="M260.852 155.286C261.104 155.258 265.333 155.405 265.534 156.248C265.735 157.091 262.211 157.155 260.748 156.955C259.284 156.756 259.962 155.384 260.852 155.286Z" fill="#F58C62"/>
<path d="M261.408 157.255C261.408 157.255 264.799 156.805 264.925 157.482C265.051 158.159 261.775 158.929 260.832 158.488C259.888 158.049 260.44 157.245 261.408 157.255Z" fill="#F58C62"/>
<path d="M261.667 158.899C261.667 158.899 264.537 158.518 264.644 159.091C264.751 159.664 261.978 160.315 261.18 159.943C260.381 159.57 260.848 158.89 261.667 158.899Z" fill="#F58C62"/>
<path d="M273.146 163.296C273.146 163.296 275.689 161.057 275.551 159.267C275.413 157.477 272.796 156.237 271.832 154.446C270.868 152.655 270.937 151.485 270.937 151.485C270.937 151.485 269.009 153.069 269.835 154.653C270.662 156.237 271.832 157.89 271.832 157.89C271.832 157.89 268.94 159.612 269.766 162.642C270.593 165.671 273.146 163.296 273.146 163.296Z" fill="#F58C62"/>
<path d="M296.146 190.75L290.396 231.25C295.252 233.306 298.552 233.107 301.396 232.25L300.646 203L296.146 190.75Z" fill="#FFDA08"/>
<path d="M323.173 157.622C309.521 157.75 298.922 166.397 298.922 166.397L303.207 175.667C303.275 175.861 292.873 184.518 292.873 184.518C292.873 184.518 298.141 203.548 299.313 210.476C301.383 202.28 303.461 194.06 306.515 186.178C309.569 178.296 313.643 170.717 319.321 164.455C320.934 162.676 322.721 160.932 323.53 158.67" fill="#FFDA08"/>
<path d="M304.646 182.5C304.646 182.5 299.896 196.375 299.396 210C298.896 223.625 298.146 232.875 298.146 232.875L301.396 232.25L307.646 187.125L304.646 182.5Z" fill="#FFDA08"/>
<path d="M304.02 216.451L287.011 409.578L297.811 411.378L351.68 223.027L304.02 216.451Z" fill="#FEA574"/>
<path d="M347.236 239.83L330.796 302.86C330.806 302.86 330.806 302.86 330.796 302.87L330.386 304.46L327.076 317.15L326.706 318.58L322.926 333.05L322.586 334.38L318.596 349.66L318.236 351.04L313.616 368.77L313.256 370.15L310.066 382.38L309.706 383.77L306.886 394.62C306.186 394.53 305.486 394.44 304.786 394.37C302.286 393.43 299.596 392.97 296.846 392.69C296.716 392.65 296.586 392.61 296.446 392.56C296.156 392.47 295.906 392.49 295.696 392.59C292.426 392.31 289.116 392.24 285.986 391.9C286.046 391.18 286.106 390.47 286.166 389.76C286.156 389.4 286.146 389.04 286.146 388.67C285.546 342.89 291.256 291.76 295.946 258C297.996 243.24 299.856 231.8 300.906 225.57C301.476 222.18 301.816 220.33 301.816 220.33L307.956 223.4L317.126 227.99L317.816 228.33C317.816 228.33 317.566 230.23 317.126 233.62C316.836 235.78 316.466 238.54 316.036 241.79L317.126 241.72L347.236 239.83Z" fill="#DBD7D7"/>
<path d="M301.113 226.943L349.783 414.609L360.562 412.688L348.222 217.173L301.113 226.943Z" fill="#FEA574"/>
<path d="M353.639 221.03L347.109 222.01L353.829 222.66L353.639 221.03Z" fill="#EFEFEF"/>
<path d="M362.949 389.55L362.879 388.11L362.189 372.86L362.129 371.45L361.359 354.88L361.289 353.42L360.399 333.96L360.329 332.5L359.649 317.8L359.589 316.34L358.759 298.21L358.679 296.69L357.989 281.45L357.909 279.95L357.169 263.77L357.099 262.32L356.319 245.35L356.259 243.79L355.579 237.85C352.02 238.55 347.131 239.36 341.172 239.91L352.644 393.954L351.648 394.048L334.169 240.37C328.279 240.57 322.269 240.21 317.129 239.71V264.28L309.239 261.98C309.229 262.14 309.219 262.3 309.219 262.46L309.369 263.1C317.189 309.92 327.789 355.59 343.499 399.13L343.829 400.42L344.249 402.13L363.469 400.85L362.949 389.55Z" fill="#EFEFEF"/>
<path d="M336.749 240.25C335.889 240.31 335.029 240.35 334.169 240.37L351.648 394.047L352.644 393.953L341.172 239.91H341.169C339.749 240.04 338.279 240.15 336.749 240.25Z" fill="#FC542D"/>
<path d="M303.249 237.75L303.749 230L300.399 228.63C299.309 235.22 297.699 245.4 295.949 258C296.769 258.43 297.749 258.75 298.899 258.96L305.289 260.83L306.509 261.18L309.239 261.98C309.469 256.22 312.129 247.06 314.699 239.44C307.969 238.68 303.249 237.75 303.249 237.75Z" fill="#EFEFEF"/>
<path d="M317.129 239.71C316.289 239.62 315.479 239.53 314.699 239.44C312.129 247.06 309.469 256.22 309.239 261.98L317.129 264.28V239.71Z" fill="#EFEFEF"/>
<path d="M334.169 240.37L333.143 231.345L340.483 230.654L341.172 239.909C347.13 239.359 352.019 238.549 355.579 237.849L353.829 222.659L347.109 222.009L319.549 226.159C319.549 226.159 318.529 228.699 317.129 232.529V239.709C322.269 240.21 328.279 240.57 334.169 240.37Z" fill="#DBD7D7"/>
<path d="M333.144 231.345L334.17 240.37C335.03 240.35 335.89 240.31 336.75 240.25C338.28 240.15 339.75 240.04 341.17 239.91H341.173L340.484 230.655L333.144 231.345Z" fill="#ED4224"/>
<path d="M303.249 237.75C303.249 237.75 307.969 238.68 314.699 239.44C315.549 236.91 316.389 234.54 317.129 232.53V221.75L308.859 223.24L307.959 223.4L307.589 223.47L301.369 224.59C301.219 224.92 301.059 225.25 300.909 225.57C300.749 226.48 300.579 227.5 300.399 228.63L303.749 230L303.249 237.75Z" fill="#DBD7D7"/>
<path d="M317.129 239.71V232.53C316.389 234.54 315.549 236.91 314.699 239.44C315.479 239.53 316.289 239.62 317.129 239.71Z" fill="#DBD7D7"/>
<path d="M297.421 414.937L285.363 411.057C283.837 411.016 268.534 410.652 267.34 412.404C266.084 414.249 295.322 423.777 295.322 423.777L297.421 414.937Z" fill="#FC542D"/>
<path d="M298.962 408.444L286.152 406.703L285.363 411.056L297.421 414.937L298.962 408.444Z" fill="#FEFEFE"/>
<path d="M361.387 416.17L348.726 416.553C347.275 417.026 332.733 421.809 332.196 423.86C331.63 426.019 362.371 425.202 362.371 425.202L361.387 416.17Z" fill="#FC542D"/>
<path d="M360.665 409.537L348.012 412.188L348.727 416.554L361.387 416.171L360.665 409.537Z" fill="#FEFEFE"/>
<path d="M344.247 166.745C341.549 165.49 338.891 164.147 336.185 162.907C335.997 162.821 335.856 162.713 335.753 162.593C335.416 162.517 335.081 162.435 334.738 162.377C334.379 162.316 334.185 162.065 334.119 161.772C333.363 161.691 332.607 161.611 331.824 161.569C331.716 161.563 331.614 161.565 331.508 161.559C330.773 161.632 330.307 161.699 330.307 161.699L328.747 161.485C322.838 161.475 317.225 162.782 317.225 162.782C317.225 162.782 304.601 177.6 303.936 180.05C301.896 184.625 305.713 188 305.713 188C305.713 188 299.94 212.17 299.359 218.704C299.258 219.871 299.176 220.815 299.116 221.503C299.399 222.011 299.696 222.511 300.035 222.985C302.92 227.025 308.255 227.915 312.865 228.252C320.562 228.814 328.364 228.67 336.082 229.036C342.352 229.333 348.793 229.317 352.673 224.304C350.076 203.285 346.497 176.159 344.247 166.745Z" fill="#FEFEFE"/>
<path d="M358.396 231L345.633 170.911C344.373 169.321 343.218 167.599 341.825 166.124L332.896 169.25C324.729 168.904 317.747 184.486 310.717 199.423C307.646 203.25 305.704 230.844 306.146 231.5C308.644 235.208 359.981 234.588 358.396 231Z" fill="#EDB200"/>
<path d="M365.353 391.322L339.22 392.643L339.733 402.797L365.866 401.475L365.353 391.322Z" fill="#E8DAE4"/>
<path d="M309.777 391.649L283.992 387.192L282.261 397.211L308.046 401.667L309.777 391.649Z" fill="#EFEFEF"/>
<path d="M330.052 163.892C330.651 162.921 331.349 162.031 332.285 161.335L330.634 161.12C325.961 161.113 321.621 161.682 317.226 162.783C321.03 164.618 325.52 164.686 330.052 163.892Z" fill="#FEA574"/>
<path d="M330.049 161.53L328.669 161.67L321.749 162.45L321.799 159.65L321.849 156.81L321.969 150.43L327.929 146.66L329.519 157.78L330.049 161.53Z" fill="#FEA574"/>
<path d="M329.816 155.2C328.686 155.9 327.396 156.36 325.986 156.52C320.446 157.14 318.216 156.98 317.136 155.15C316.766 154.52 316.526 153.69 316.346 152.62C316.136 151.49 315.996 150.1 315.816 148.39C315.526 145.79 316.356 143.32 317.906 141.46H317.916C318.236 141.08 318.586 140.72 318.966 140.39C318.976 140.38 318.986 140.37 318.996 140.37C320.346 139.21 322.046 138.44 323.946 138.23C325.656 138.04 327.306 138.33 328.766 138.99C331.626 140.28 333.746 143.01 334.126 146.35C334.526 149.99 332.746 153.38 329.816 155.2Z" fill="#FEA574"/>
<path d="M316.002 146.974L313.123 151.32L316.992 151.842L316.048 147.169" fill="#FEA574"/>
<path d="M327.003 146.759C327.089 146.749 329.178 144.006 330.563 146.742C331.948 149.478 329.703 152.122 327.139 151.386" fill="#FEA574"/>
<path d="M322.164 146.093C322.097 146.093 322.029 146.075 321.968 146.037C319.298 144.391 317.771 145.588 317.707 145.64C317.549 145.769 317.312 145.748 317.181 145.588C317.05 145.429 317.071 145.195 317.228 145.063C317.308 144.997 319.209 143.456 322.362 145.398C322.538 145.507 322.593 145.738 322.485 145.914C322.414 146.029 322.291 146.093 322.164 146.093Z" fill="#1B193B"/>
<path d="M329.816 155.2C329.736 155.23 329.656 155.26 329.576 155.29C329.296 154.67 329.156 153.99 329.156 153.32C329.156 153.07 329.176 152.82 329.306 152.62C329.456 152.4 329.706 152.27 329.936 152.15C330.926 151.62 331.886 150.84 332.106 149.74C332.316 148.63 331.586 147.42 330.506 147.1C329.416 146.78 328.146 147.39 327.716 148.43C327.476 149.03 327.486 149.72 327.186 150.3C326.886 150.87 326.006 151.23 325.606 150.73C325.946 148.91 326.286 147.09 326.626 145.27C326.676 145.05 326.716 144.81 326.616 144.61C326.516 144.38 326.276 144.26 326.046 144.17C325.286 143.86 324.466 143.72 323.656 143.75C323.196 143.77 322.736 143.84 322.286 143.74C321.836 143.64 321.406 143.31 321.356 142.85C321.336 142.55 321.476 142.2 321.286 141.96C321.166 141.8 320.946 141.76 320.756 141.74C319.796 141.6 318.836 141.54 317.876 141.56L318.186 141.49C318.096 141.49 318.006 141.48 317.916 141.46H317.906C317.816 141.45 317.726 141.44 317.626 141.43C318.026 141.02 318.476 140.67 318.966 140.39C318.976 140.38 318.986 140.37 318.996 140.37C321.616 138.82 325.296 138.83 328.766 138.99C331.626 140.28 333.746 143.01 334.126 146.35C334.526 149.99 332.746 153.38 329.816 155.2Z" fill="#1B193B"/>
<path d="M317.645 153.958C317.193 153.958 316.772 153.863 316.377 153.674C316.19 153.584 316.111 153.36 316.201 153.174C316.29 152.987 316.515 152.909 316.702 152.998C317.362 153.314 318.112 153.277 319.066 152.883C319.258 152.804 319.477 152.894 319.556 153.086C319.636 153.277 319.545 153.497 319.353 153.576C318.735 153.83 318.169 153.958 317.645 153.958Z" fill="#F05E4A"/>
<path d="M318.647 147.246C318.64 147.246 318.634 147.246 318.627 147.246C317.662 147.246 317.66 148.746 318.627 148.746C318.634 148.746 318.64 148.746 318.647 148.746C319.612 148.746 319.614 147.246 318.647 147.246Z" fill="#1B193B"/>
<path d="M329.896 150.833C329.751 150.833 329.613 150.748 329.552 150.607C329.47 150.417 329.557 150.196 329.747 150.113C329.897 150.046 330.633 149.661 330.259 148.769C330.173 148.566 330.072 148.452 329.956 148.43C329.684 148.375 329.242 148.72 329.083 148.884C328.939 149.034 328.702 149.037 328.553 148.893C328.404 148.749 328.4 148.512 328.544 148.363C328.625 148.28 329.348 147.549 330.095 147.692C330.355 147.741 330.716 147.917 330.95 148.478C331.492 149.77 330.595 150.562 330.046 150.801C329.997 150.824 329.946 150.833 329.896 150.833Z" fill="#F05E4A"/>
<path d="M321.523 148.271C321.504 148.271 321.484 148.27 321.464 148.267L317.443 147.642C317.239 147.61 317.099 147.418 317.131 147.214C317.163 147.01 317.355 146.873 317.558 146.901L321.579 147.526C321.784 147.558 321.925 147.75 321.893 147.954C321.864 148.139 321.705 148.271 321.523 148.271Z" fill="#1B193B"/>
<path d="M330.116 145.635C327.911 146.636 325.317 146.745 323.036 145.933C323.25 146.278 323.376 146.678 323.396 147.084C321.32 146.576 319.444 145.289 318.223 143.534C318.078 143.326 317.787 143.094 317.619 143.284C317.532 143.383 317.558 143.534 317.589 143.661C317.745 144.299 317.902 144.938 318.058 145.576C316.223 144.543 315.03 142.461 315.066 140.356C315.077 139.693 315.209 139.013 315.58 138.463C316.124 137.655 317.094 137.247 318.04 137.016C319.583 136.64 321.188 136.623 322.776 136.608C324.795 136.589 326.814 136.551 328.833 136.551C330.522 136.551 335.459 137.811 336.709 142.874C336.709 142.874 337.812 149.565 337.459 151.437C336.877 154.524 326.375 157.685 326.021 156.812L329.306 152.619L331.771 151.499L333.459 149.686L332.709 146.686L330.116 145.635Z" fill="#1B193B"/>
<path d="M323.093 177.71L327.094 185.923L307.718 211.424C307.718 211.424 313.647 177.876 325.373 168.676C331.839 161.318 330.045 161.527 330.045 161.527L329.52 157.784C338.147 157.918 340.425 165.216 340.425 165.216L323.093 177.71Z" fill="#FFDA08"/>
<path d="M359.603 213.047L315.422 205.168L313.543 210.999C313.543 210.999 353.15 233.36 365.85 229.054C369.148 225.299 359.603 213.047 359.603 213.047Z" fill="#FEA574"/>
<path d="M337.161 164.452C328.121 167.333 330.636 175.084 332.383 184.62C332.522 185.627 332.803 186.738 333.204 187.93C333.641 189.324 334.211 190.718 334.911 192.105C337.708 198.062 342.216 204.93 345.871 210.12C335.233 208.255 322.361 206.456 322.361 206.456L320.663 219.721C320.663 219.721 355.6 233.389 365.932 229.816C368.037 228.166 368.138 225.573 368.249 224.6C369.268 215.677 350.454 159.833 337.161 164.452Z" fill="#FFDA08"/>
<path d="M316.621 206.972C316.621 206.972 312.311 200.867 311.73 200.479C311.149 200.091 310.401 199.897 309.238 200.23C308.075 200.562 303.423 203.137 302.26 203.054C301.097 202.971 302.094 204.217 304.918 203.802C307.742 203.387 309.376 201.808 310.068 202.639C310.206 202.861 305.665 204.965 305.998 205.713C306.33 206.461 307.41 208.621 309.155 208.288C310.9 207.955 311.066 207.125 311.066 207.125C311.066 207.125 310.34 208.727 310.994 209.878C311.648 211.029 314.223 211.195 314.223 211.195L316.621 206.972Z" fill="#FEA574"/>
<path d="M310.373 205.352C310.373 205.352 307.327 208.066 307.77 208.841C308.213 209.616 309.376 211.056 310.317 210.835C311.258 210.614 310.262 209.672 310.262 209.672L309.376 208.897L311.757 206.792L310.373 205.352Z" fill="#FEA574"/>
<path d="M308.461 208.188C309.446 207.514 310.431 206.841 311.416 206.167C311.944 205.806 311.444 204.939 310.911 205.304C309.926 205.978 308.941 206.651 307.956 207.325C307.428 207.685 307.928 208.552 308.461 208.188Z" fill="#F05E4A"/>
<path d="M307.327 206.388C308.403 205.717 309.478 205.045 310.554 204.374C311.099 204.034 310.597 203.169 310.049 203.511C308.973 204.182 307.898 204.854 306.822 205.525C306.277 205.865 306.779 206.73 307.327 206.388Z" fill="#F05E4A"/>
<path d="M322.999 177.569L340.015 165.916C340.243 165.76 340.554 165.818 340.71 166.046C340.866 166.274 340.808 166.585 340.58 166.741C340.576 166.744 340.57 166.747 340.567 166.75L323.185 177.85C323.107 177.9 323.003 177.877 322.952 177.799C322.903 177.722 322.924 177.62 322.999 177.569Z" fill="#EDB200"/>
<path d="M328.334 226C328.314 226 328.293 225.999 328.273 225.996C327.999 225.963 327.804 225.714 327.838 225.439L330.171 206.272C330.204 205.999 330.45 205.797 330.728 205.836C331.002 205.869 331.197 206.118 331.164 206.393L328.831 225.56C328.799 225.814 328.583 226 328.334 226Z" fill="#EDB200"/>
<path d="M339.772 167.229C341.259 169.334 342.509 171.402 343.743 173.55C344.96 175.689 346.117 177.857 347.188 180.064C349.354 184.466 351.23 188.998 352.87 193.606C354.494 198.206 355.962 202.841 357.287 207.525C358.602 212.214 359.802 216.919 360.657 221.739L360.658 221.743C360.707 222.015 360.526 222.275 360.255 222.324C360.187 222.336 360.114 222.333 360.051 222.319L329.718 215.152C329.449 215.088 329.283 214.819 329.346 214.55C329.41 214.281 329.679 214.115 329.948 214.178L360.281 221.345L359.674 221.92L359.673 221.916C358.622 217.232 357.214 212.589 355.702 208.01C354.18 203.43 352.513 198.89 350.706 194.426C348.893 189.979 346.856 185.627 344.55 181.43C343.409 179.325 342.188 177.268 340.916 175.25C339.648 173.25 338.286 171.228 336.893 169.435L336.857 169.388C336.242 168.596 336.385 167.456 337.177 166.841C337.969 166.226 339.109 166.369 339.724 167.161C339.739 167.183 339.757 167.209 339.772 167.229Z" fill="#EDB200"/>
<path d="M325.22 156.72L321.8 159.65L321.85 156.81C322.34 156.84 325.22 156.72 325.22 156.72Z" fill="#F58C62"/>
<path d="M369.759 424.965C369.718 424.71 369.711 424.421 369.746 424.156L369.815 423.786C369.861 423.555 369.904 423.308 369.956 423.092L370.26 421.764L370.903 419.143L372.24 413.933L374.993 403.549L380.611 382.821L392.026 341.418L392.086 341.242C392.673 339.507 394.555 338.577 396.29 339.164C397.389 339.536 398.17 340.449 398.442 341.494L419.03 423.118C419.165 423.654 418.84 424.198 418.305 424.333C417.788 424.463 417.263 424.163 417.105 423.661L392.004 343.31L398.419 343.386L384.769 384.08L378.033 404.454L374.723 414.655L373.111 419.762L372.335 422.315L371.97 423.585C371.905 423.801 371.864 423.994 371.81 424.198L371.738 424.483C371.751 424.44 371.723 424.374 371.66 424.341C371.832 424.866 371.547 425.431 371.022 425.603C370.496 425.776 369.931 425.49 369.759 424.965Z" fill="#DBD7D7"/>
<path d="M370.71 386.99C374.622 386.227 378.534 385.829 382.446 385.577C386.358 385.298 390.27 385.222 394.182 385.241C398.094 385.268 402.006 385.375 405.917 385.66C409.829 385.925 413.741 386.291 417.652 386.985C417.656 386.986 417.659 386.99 417.658 386.994C417.657 386.997 417.655 387 417.652 387C413.74 387.694 409.828 388.06 405.916 388.324C402.004 388.608 398.092 388.715 394.181 388.742C390.269 388.76 386.357 388.684 382.446 388.405C378.534 388.152 374.622 387.754 370.71 386.99Z" fill="#DBD7D7"/>
<path d="M430.821 386.218L428.858 412.504L437.412 415.911L442.613 389.087L430.821 386.218Z" fill="#66393B"/>
<path d="M428.068 409.011L427.312 424.319C427.312 424.319 457.206 423.343 456.533 421.28C455.893 419.319 441.5 415.513 440.062 415.137L440.505 410.857L428.068 409.011Z" fill="#1B193B"/>
<path d="M427.206 400.144C428.868 400.144 443.823 401.806 443.823 401.806C443.823 401.806 453.793 341.986 454.624 336.586C455.455 331.186 457.947 313.738 437.592 312.907C417.237 312.076 373.618 306.676 373.618 306.676C373.618 306.676 368.633 332.432 396.466 337.417C424.299 342.402 429.284 341.571 429.284 341.571L427.206 400.144Z" fill="#ED4224"/>
<path d="M447.792 319.171C444.969 319.648 422.637 332.431 391.553 336.226C393.065 336.698 394.698 337.1 396.465 337.417C424.298 342.402 429.283 341.571 429.283 341.571L427.206 400.144C428.868 400.144 443.823 401.806 443.823 401.806C443.823 401.806 453.793 341.986 454.624 336.586C455.139 333.24 456.286 325.271 452.246 319.493C450.916 319.047 449.464 318.888 447.792 319.171Z" fill="#282736"/>
<path d="M419.75 343.5H371.25C368.489 343.5 366.25 341.261 366.25 338.5V337.75C366.25 334.989 368.489 332.75 371.25 332.75H419.75C422.511 332.75 424.75 334.989 424.75 337.75V338.5C424.75 341.261 422.511 343.5 419.75 343.5Z" fill="#FFDA08"/>
<path d="M444.969 236.27C443.732 235.51 409.51 220.107 403.986 220.104C398.462 220.101 404.169 241.238 404.169 241.238C404.169 241.238 439.726 253.659 443.147 251.95C455.727 248.517 449.574 239.248 444.969 236.27Z" fill="#1B193B"/>
<path d="M436.26 236.654C437.761 235.405 439.264 234.158 440.772 232.918L409.689 211.625L406.365 217.154L431.29 240.452C432.89 239.116 434.567 237.876 436.26 236.654Z" fill="#66393B"/>
<path d="M418.433 215.028C416.48 216.666 412.251 219.336 410.151 220.749L433.295 242.318C440.217 243.845 449.769 242.277 448.074 239.166C446.38 236.055 418.433 215.028 418.433 215.028Z" fill="#1B193B"/>
<path d="M405.222 216.086L396.651 213.106C395.609 212.744 395.103 211.564 395.558 210.56L397.755 205.71C398.165 204.806 399.208 204.377 400.135 204.732L409.664 208.379C410.691 208.772 411.161 209.959 410.682 210.949L408.52 215.415C408.123 216.236 407.193 216.652 406.316 216.401L405.323 216.118C405.289 216.108 405.256 216.097 405.222 216.086Z" fill="#1B193B"/>
<path d="M407.641 215.084L396.377 211.773L399.017 205.304L410.193 209.613L407.641 215.084Z" fill="#FEFEFE"/>
<path d="M401.768 204.956C401.71 205.195 400.436 210.462 401.711 210.745C402.986 211.028 403.477 205.749 403.489 204.966C403.501 204.184 402.116 203.52 401.768 204.956Z" fill="#66393B"/>
<path d="M403.839 205.406C403.748 205.635 402.79 209.638 403.528 210.044C404.266 210.451 405.238 207.163 405.431 205.74C405.623 204.317 404.161 204.597 403.839 205.406Z" fill="#66393B"/>
<path d="M405.542 206.438C405.542 206.438 404.242 209.501 404.844 209.794C405.446 210.087 407.016 207.216 406.847 206.217C406.679 205.219 405.783 205.528 405.542 206.438Z" fill="#66393B"/>
<path d="M407.014 207.106C407.014 207.106 405.914 209.698 406.424 209.947C406.934 210.195 408.262 207.765 408.12 206.92C407.977 206.074 407.219 206.336 407.014 207.106Z" fill="#66393B"/>
<path d="M407.545 217.793C407.545 217.793 405.12 219.362 403.671 218.841C402.222 218.32 401.789 215.895 400.527 214.697C399.265 213.499 398.282 213.288 398.282 213.288C398.282 213.288 400.027 212.072 401.149 213.11C402.271 214.148 403.373 215.483 403.373 215.483C403.373 215.483 405.45 213.509 407.768 214.877C410.085 216.246 407.545 217.793 407.545 217.793Z" fill="#66393B"/>
<path d="M374.94 231.41L374.96 226.05C374.94 226.06 374.93 226.08 374.91 226.09C374.181 227.708 373.541 229.467 373.002 231.375C373.648 231.387 374.294 231.401 374.94 231.413V231.41Z" fill="#FEFEFE"/>
<path d="M413.26 232.23C412.79 230.33 412.26 228.55 411.68 226.89C408.82 222.37 405.23 218.81 398.54 218.12C394.8 217.74 391.07 218.1 387.5 219.12L388.509 231.681C396.759 231.848 405.01 232.024 413.26 232.23Z" fill="#FEFEFE"/>
<path d="M374.849 253.5V253.497H369.779V253.5C369.749 253.79 369.739 254.08 369.719 254.37C369.669 255.11 369.629 255.87 369.599 256.62C369.519 258.159 369.449 259.708 369.399 261.287C371.202 261.285 373.006 261.269 374.809 261.264L374.849 253.5Z" fill="#FEFEFE"/>
<path d="M374.889 242.4V242.39C373.539 242.3 372.189 242.22 370.84 242.125C370.84 242.127 370.839 242.13 370.839 242.13C370.749 242.82 370.649 243.51 370.569 244.23C370.299 246.54 370.079 248.949 369.909 251.428H374.849L374.889 242.4Z" fill="#FEFEFE"/>
<path d="M374.93 233.482C374.101 233.466 373.271 233.449 372.442 233.433C372.442 233.435 372.441 233.437 372.44 233.44C372.33 233.88 372.23 234.33 372.13 234.79C371.74 236.469 371.42 238.238 371.14 240.077C372.393 240.165 373.647 240.239 374.9 240.323L374.93 233.482Z" fill="#FEFEFE"/>
<path d="M389.279 241.191C397.925 241.659 406.575 242.04 415.23 242.313V242.31C414.88 240.03 414.5 237.83 414.06 235.75C413.96 235.26 413.86 234.78 413.76 234.31C405.4 234.1 397.04 233.922 388.68 233.754L389.279 241.191Z" fill="#FEFEFE"/>
<path d="M391.06 263.27L391.85 273.18C400.573 273.129 409.298 273.081 418.02 273.032V273.031C417.91 271.011 417.78 269.011 417.65 267.021C417.61 266.271 417.56 265.511 417.51 264.771C417.47 264.201 417.43 263.621 417.39 263.061V263.06C408.615 263.139 399.837 263.209 391.059 263.264L391.06 263.27Z" fill="#FEFEFE"/>
<path d="M392.02 275.25L392.49 281.05V281.056C401.144 280.95 409.798 280.876 418.45 280.843V280.84C418.43 280.6 418.42 280.35 418.41 280.11C418.37 279.35 418.32 278.61 418.29 277.87C418.24 276.94 418.19 276.01 418.14 275.09C409.435 275.145 400.726 275.192 392.019 275.243L392.02 275.25Z" fill="#FEFEFE"/>
<path d="M390.27 253.497V253.5L390.89 261.19V261.195C399.675 261.139 408.46 261.069 417.24 260.99C417.12 259.47 417 257.97 416.87 256.48C416.8 255.73 416.74 254.98 416.67 254.23C416.64 253.941 416.61 253.652 416.58 253.374C409.971 253.339 403.343 253.498 396.765 253.498H390.27V253.497Z" fill="#FEFEFE"/>
<path d="M389.449 243.28L390.099 251.428H396.764C403.275 251.428 409.827 251.269 416.369 251.304V251.3C416.209 249.74 416.029 248.21 415.839 246.72C415.749 245.95 415.649 245.21 415.539 244.46C415.539 244.431 415.53 244.411 415.529 244.382C406.831 244.112 398.137 243.734 389.448 243.268L389.449 243.28Z" fill="#FEFEFE"/>
<path d="M374.73 281.33L374.75 275.35V275.345C372.856 275.355 370.964 275.369 369.07 275.378V275.38C369.06 276.31 369.05 277.24 369.03 278.17C369.02 278.92 369.01 279.67 368.99 280.42C368.99 280.76 368.98 281.099 368.97 281.429C370.889 281.391 372.81 281.372 374.73 281.338V281.33Z" fill="#FEFEFE"/>
<path d="M418.849 288.62C418.809 287.86 418.769 287.12 418.729 286.37C418.669 285.211 418.609 284.061 418.549 282.912C409.916 282.945 401.283 283.017 392.649 283.124L392.669 283.33L403.999 290.67L402.769 295.04H419.199C419.079 292.92 418.969 290.77 418.849 288.62Z" fill="#FEFEFE"/>
<path d="M374.72 283.415C372.793 283.45 370.867 283.469 368.94 283.508V283.51C368.93 284.68 368.9 285.85 368.87 287.01C368.85 287.76 368.84 288.52 368.82 289.27C368.77 291.22 368.71 293.14 368.64 295.04H374.84L374.67 295L374.72 283.415Z" fill="#FEFEFE"/>
<path d="M374.799 263.34V263.333C372.979 263.338 371.159 263.354 369.339 263.356V263.36C369.319 263.93 369.299 264.51 369.289 265.09C369.259 265.84 369.249 266.59 369.229 267.35C369.179 269.32 369.139 271.309 369.109 273.309C370.993 273.3 372.875 273.287 374.759 273.277L374.799 263.34Z" fill="#FEFEFE"/>
<path d="M368.969 281.429C368.937 281.43 368.905 281.43 368.872 281.431C368.851 282.124 368.841 282.817 368.82 283.51C368.859 283.509 368.899 283.509 368.938 283.508C368.958 282.819 368.968 282.129 368.968 281.43V281.429H368.969Z" fill="#FE6B75"/>
<path d="M418.549 282.912C418.65 282.912 418.751 282.91 418.852 282.91C418.811 282.217 418.769 281.534 418.728 280.841C418.635 280.841 418.542 280.843 418.45 280.843C418.48 281.532 418.52 282.221 418.55 282.91L418.549 282.912Z" fill="#FE6B75"/>
<path d="M392.649 283.12V283.124C401.282 283.017 409.915 282.945 418.549 282.912V282.91C418.519 282.221 418.479 281.532 418.449 280.843C409.797 280.876 401.143 280.95 392.489 281.056L392.649 283.12Z" fill="#FE6B75"/>
<path d="M374.719 283.4L374.729 281.337C372.809 281.372 370.889 281.39 368.969 281.428C368.969 282.127 368.959 282.818 368.939 283.507C370.866 283.468 372.792 283.449 374.719 283.414V283.4Z" fill="#FE6B75"/>
<path d="M369.109 273.309C369.082 273.309 369.055 273.309 369.028 273.31C369.018 273.993 369.007 274.686 368.986 275.379C369.014 275.379 369.041 275.379 369.069 275.379C369.089 274.69 369.099 274 369.109 273.311V273.309Z" fill="#FE6B75"/>
<path d="M418.14 275.09C418.229 275.089 418.318 275.089 418.408 275.088C418.367 274.395 418.325 273.712 418.294 273.029C418.203 273.029 418.111 273.03 418.02 273.03C418.06 273.711 418.1 274.401 418.14 275.09Z" fill="#FE6B75"/>
<path d="M391.85 273.18L392.019 275.243C400.726 275.192 409.435 275.145 418.14 275.09C418.1 274.401 418.06 273.711 418.02 273.031C409.298 273.081 400.573 273.129 391.85 273.18Z" fill="#FE6B75"/>
<path d="M374.759 273.28V273.277C372.875 273.287 370.993 273.299 369.109 273.309V273.31C369.099 273.999 369.089 274.689 369.069 275.378C370.963 275.368 372.855 275.355 374.749 275.345L374.759 273.28Z" fill="#FE6B75"/>
<path d="M417.389 263.059C417.476 263.058 417.564 263.058 417.651 263.057C417.61 262.364 417.558 261.671 417.506 260.988C417.417 260.989 417.328 260.989 417.238 260.99C417.289 261.68 417.339 262.359 417.389 263.059Z" fill="#FE6B75"/>
<path d="M369.4 261.287C369.362 261.287 369.325 261.287 369.287 261.287C369.256 261.97 369.246 262.663 369.225 263.356C369.263 263.356 369.302 263.356 369.34 263.355C369.35 262.666 369.38 261.968 369.4 261.289V261.287Z" fill="#FE6B75"/>
<path d="M391.059 263.263C399.837 263.207 408.615 263.137 417.39 263.059C417.34 262.359 417.29 261.68 417.24 260.99C408.46 261.069 399.676 261.139 390.89 261.195L391.059 263.263Z" fill="#FE6B75"/>
<path d="M374.81 261.27V261.264C373.007 261.269 371.203 261.285 369.4 261.287V261.29C369.38 261.969 369.35 262.668 369.34 263.356C371.16 263.354 372.98 263.338 374.8 263.333L374.81 261.27Z" fill="#FE6B75"/>
<path d="M416.579 253.374C416.674 253.374 416.77 253.373 416.865 253.374C416.803 252.681 416.741 251.988 416.668 251.305C416.568 251.304 416.469 251.306 416.369 251.305C416.449 251.983 416.519 252.672 416.579 253.371C416.579 253.371 416.579 253.372 416.579 253.374Z" fill="#FE6B75"/>
<path d="M369.91 251.428H369.721C369.669 252.111 369.628 252.804 369.597 253.497H369.78C369.81 252.798 369.86 252.109 369.91 251.429V251.428Z" fill="#FE6B75"/>
<path d="M390.1 251.428V251.43L390.27 253.498H396.765C403.343 253.498 409.971 253.339 416.58 253.374C416.58 253.373 416.58 253.372 416.58 253.37C416.52 252.671 416.45 251.983 416.37 251.304C409.827 251.269 403.276 251.428 396.765 251.428H390.1Z" fill="#FE6B75"/>
<path d="M374.849 251.43V251.428H369.909V251.43C369.859 252.109 369.809 252.798 369.779 253.498H374.849V251.43Z" fill="#FE6B75"/>
<path d="M371.139 240.08V240.077C371.045 240.07 370.952 240.065 370.858 240.059C370.755 240.731 370.661 241.414 370.568 242.107C370.658 242.113 370.748 242.118 370.839 242.125C370.848 242.086 370.848 242.039 370.858 242C370.949 241.35 371.039 240.71 371.139 240.08Z" fill="#FE6B75"/>
<path d="M415.529 244.382C415.633 244.385 415.737 244.39 415.841 244.393C415.748 243.689 415.644 243.007 415.541 242.324C415.437 242.321 415.333 242.316 415.229 242.313C415.329 242.992 415.429 243.681 415.529 244.38V244.382Z" fill="#FE6B75"/>
<path d="M374.9 240.34V240.323C373.647 240.239 372.393 240.165 371.14 240.077V240.08C371.04 240.71 370.95 241.35 370.86 242C370.85 242.038 370.85 242.086 370.841 242.125C372.19 242.22 373.541 242.3 374.89 242.39L374.9 240.34Z" fill="#FE6B75"/>
<path d="M389.279 241.2L389.448 243.268C398.137 243.734 406.831 244.112 415.529 244.382V244.38C415.429 243.681 415.329 242.992 415.229 242.313C406.574 242.04 397.924 241.659 389.278 241.191L389.279 241.2Z" fill="#FE6B75"/>
<path d="M413.76 234.31C413.861 234.313 413.962 234.314 414.063 234.317C413.908 233.603 413.742 232.92 413.577 232.237C413.472 232.234 413.366 232.232 413.261 232.23C413.371 232.64 413.481 233.06 413.581 233.49C413.64 233.76 413.7 234.03 413.76 234.31Z" fill="#FE6B75"/>
<path d="M373 231.38C373 231.378 373.001 231.377 373.002 231.375C372.891 231.373 372.781 231.37 372.671 231.368C372.474 232.03 372.299 232.723 372.133 233.427C372.236 233.429 372.339 233.431 372.442 233.433C372.512 233.135 372.591 232.837 372.67 232.55C372.77 232.15 372.88 231.76 373 231.38Z" fill="#FE6B75"/>
<path d="M374.929 233.48L374.939 231.413C374.293 231.401 373.647 231.387 373.001 231.375C373.001 231.377 373 231.378 372.999 231.38C372.879 231.76 372.769 232.15 372.669 232.55C372.59 232.838 372.51 233.136 372.441 233.433C373.27 233.449 374.1 233.466 374.929 233.482V233.48Z" fill="#FE6B75"/>
<path d="M388.51 231.69L388.68 233.75V233.754C397.04 233.923 405.4 234.1 413.76 234.31C413.7 234.03 413.64 233.76 413.58 233.49C413.48 233.06 413.37 232.64 413.26 232.23C405.01 232.024 396.759 231.848 388.509 231.681L388.51 231.69Z" fill="#FE6B75"/>
<path d="M401 301.33L402.77 295.04H374.84L401 301.33Z" fill="#EFEFEF"/>
<path d="M389.45 243.28L389.449 243.268C384.594 243.007 379.741 242.714 374.89 242.39V242.4L374.85 251.428H390.1L389.45 243.28Z" fill="#EFEFEF"/>
<path d="M390.89 261.19L390.27 253.5V253.497H374.85V253.5L374.81 261.264C380.169 261.249 385.529 261.229 390.89 261.195V261.19Z" fill="#EFEFEF"/>
<path d="M388.679 233.754C384.096 233.662 379.512 233.571 374.929 233.483L374.899 240.323C379.69 240.643 384.483 240.932 389.278 241.192L388.679 233.754Z" fill="#EFEFEF"/>
<path d="M391.06 263.27L391.059 263.263C385.639 263.297 380.219 263.317 374.8 263.333V263.34L374.76 273.277C380.458 273.247 386.153 273.213 391.85 273.18L391.06 263.27Z" fill="#EFEFEF"/>
<path d="M392.67 283.33L392.65 283.124C386.673 283.198 380.696 283.304 374.719 283.414L374.67 295L374.84 295.04H402.77L404 290.67L392.67 283.33Z" fill="#EFEFEF"/>
<path d="M374.939 231.413C379.462 231.499 383.985 231.589 388.508 231.681L387.499 219.12C382.929 220.42 378.639 222.8 374.959 226.05L374.939 231.41V231.413Z" fill="#EFEFEF"/>
<path d="M392.489 281.05L392.019 275.25V275.243C386.263 275.277 380.508 275.314 374.749 275.344V275.349L374.729 281.329V281.337C380.649 281.23 386.569 281.128 392.489 281.055V281.05Z" fill="#EFEFEF"/>
<path d="M392.49 281.056C386.569 281.129 380.649 281.231 374.73 281.338L374.72 283.401V283.416C380.697 283.306 386.674 283.199 392.651 283.126V283.122L392.49 281.056Z" fill="#FE3D4A"/>
<path d="M391.85 273.18C386.153 273.213 380.458 273.246 374.76 273.277V273.28L374.75 275.345C380.508 275.314 386.263 275.278 392.02 275.244L391.85 273.18Z" fill="#FE3D4A"/>
<path d="M390.89 261.195C385.529 261.229 380.169 261.249 374.81 261.264V261.27L374.8 263.333C380.219 263.318 385.639 263.298 391.059 263.263L390.89 261.195Z" fill="#FE3D4A"/>
<path d="M390.1 251.43V251.428H374.85V251.43V253.497H390.27L390.1 251.43Z" fill="#FE3D4A"/>
<path d="M389.28 241.2L389.279 241.192C384.484 240.933 379.691 240.643 374.9 240.323V240.34L374.89 242.39C379.741 242.714 384.594 243.007 389.449 243.268L389.28 241.2Z" fill="#FE3D4A"/>
<path d="M388.68 233.75L388.51 231.69L388.509 231.681C383.986 231.589 379.463 231.5 374.94 231.413L374.93 233.48V233.483C379.513 233.571 384.097 233.662 388.68 233.754V233.75Z" fill="#FE3D4A"/>
<path d="M457.899 362.107L462.696 387.845L471.774 388.942L469.951 361.865L457.899 362.107Z" fill="#784346"/>
<path d="M460.092 382.937L461.685 398.181C461.685 398.181 491.078 392.649 490.097 390.713C489.165 388.873 474.359 387.31 472.882 387.159L472.665 382.862L460.092 382.937Z" fill="#23204D"/>
<path d="M395.43 226.81C389.52 226.81 388.06 221.84 387.71 218.98C390.75 218.21 393.9 217.86 397.07 218.01C397.56 218.03 398.05 218.06 398.54 218.11C399.26 218.18 399.95 218.28 400.6 218.41C400.88 218.46 401.15 218.52 401.41 218.59C401.81 222.01 401.34 226.81 395.43 226.81Z" fill="#784346"/>
<path d="M389.854 206.035L389.403 220.634H397.53L396.025 209.045" fill="#784346"/>
<path d="M418 236.348C415.991 229.616 410.685 220.821 401.379 218.581C412.135 233.1 413.054 263.755 410.69 299.795C410.803 301.129 410.885 301.865 410.927 301.865C411.378 301.865 429.289 299.028 429.289 299.028C429.289 299.028 420.008 243.08 418 236.348Z" fill="#1B193B"/>
<path d="M401.604 213.738C401.355 214.439 401.037 214.974 400.617 215.376C399.356 216.593 397.106 216.479 392.333 215.564C387.486 214.634 384.301 209.937 385.233 205.078C386.165 200.219 390.859 197.046 395.706 197.975C400.565 198.907 403.753 203.592 402.821 208.451C402.375 210.777 402.068 212.507 401.604 213.738Z" fill="#784346"/>
<path d="M403.54 213.496L399.845 212.787L400.906 208.853L402.765 208.75L403.54 213.496Z" fill="#784346"/>
<path d="M392.102 206.015C392.019 205.999 390.203 203.18 388.651 205.727C387.099 208.274 389.075 211.009 391.617 210.491" fill="#784346"/>
<path d="M396.746 206.547C396.619 206.547 396.491 206.499 396.393 206.402C396.198 206.207 396.196 205.891 396.391 205.694C398.435 203.636 401.764 205.169 401.906 205.234C402.156 205.352 402.263 205.649 402.145 205.899C402.028 206.148 401.732 206.258 401.481 206.14C401.453 206.127 398.649 204.843 397.1 206.4C397.003 206.498 396.875 206.547 396.746 206.547Z" fill="#1B193B"/>
<path d="M410.152 286.869C412.971 285.69 415.823 284.608 418.703 283.625C420.378 286.75 422.052 289.875 423.727 293C421.503 292.867 419.275 292.832 417.049 292.895C417.002 292.202 416.383 291.701 415.764 291.582C415.145 291.463 414.514 291.623 413.889 291.707C412.213 291.931 410.478 291.581 408.981 290.719" fill="#784346"/>
<path d="M416.999 286.375C417.374 286.25 422.249 284 422.249 284L428.499 291.5C428.499 291.5 426.749 292.125 425.749 290.875C424.749 289.625 421.999 286.625 421.999 286.625L418.852 288.617L416.999 286.375Z" fill="#784346"/>
<path d="M417.625 293.5L435.875 264.5C435.875 264.5 436 263.625 438.625 263.625C441.25 263.625 475.75 263.625 475.75 263.625L477.333 264.667L431 293.5H417.625Z" fill="#7E7D94"/>
<path d="M419.333 293C420.078 292.255 436.333 264.667 437.333 264.667C438.333 264.667 477.333 264.667 477.333 264.667L460.333 292.334C460.333 292.334 418.5 293.833 419.333 293Z" fill="#FFB800"/>
<path d="M399.125 293L399 294.875L419.204 295.044L419.333 293H399.125Z" fill="#FFB800"/>
<path d="M460.333 292.333L460.125 293.875L419.204 295.044L419.333 293L460.333 292.333Z" fill="#2D3AAD"/>
<path d="M454.225 279.095C454.735 280.816 453.593 282.672 451.673 283.241C449.754 283.81 447.784 282.876 447.274 281.155C446.764 279.434 447.906 277.578 449.826 277.009C451.746 276.44 453.715 277.374 454.225 279.095Z" fill="#2D3AAD"/>
<path d="M472.9 375.22L459.61 374.8L447.15 319.55C447.15 319.55 399.37 341.15 377.36 334.92C364.18 331.19 361.72 316.45 361.86 305.22C361.95 297.68 363.23 291.72 363.23 291.72C363.23 291.72 382.89 294.15 404.5 294.12C404.5 294.12 404.5 294.12 404.51 294.12C415.08 294.1 426.1 293.49 435.52 291.72C464.18 286.32 472.9 301.27 472.49 310C472.07 318.72 472.9 375.22 472.9 375.22Z" fill="#2F2E41"/>
<path d="M403.999 294.33C396.999 294.33 387.669 297.33 387.669 297.33L387.999 308.67L361.859 305.22C361.949 297.68 363.229 291.72 363.229 291.72C363.229 291.72 382.889 294.15 404.499 294.12C404.499 294.12 404.499 294.12 404.509 294.12C404.779 294.26 404.639 294.33 403.999 294.33Z" fill="black"/>
<path d="M370.94 229.257C363.567 246.192 360.655 300.732 360.655 300.732L385.188 303.113C388.157 273.468 389.182 245.265 387.566 219.02C381.182 220.678 375.333 224.254 370.94 229.257Z" fill="#1B193B"/>
<path d="M412.393 291.839C412.393 291.839 373.411 289.435 366.349 284.658C359.287 279.881 366.349 269.495 376.942 273.234C387.535 276.973 410.591 286.527 410.591 286.527L412.393 291.839Z" fill="#784346"/>
<path d="M380.901 274.682L383.381 232.939C379.645 226.848 375.485 225.777 370.941 229.256C367.18 238.132 360.118 268.457 360.118 271.157C360.118 273.857 357.833 282.373 366.349 284.658C371.639 288.237 406.149 293.878 406.149 293.878C406.149 293.878 406.304 287.041 406.693 284.923C400.708 282.47 389.099 277.753 380.901 274.682Z" fill="#23204D"/>
<path d="M389.727 214.505C390.313 213.438 390.899 212.371 391.485 211.304C390.27 210.837 389.147 209.987 388.634 208.792C388.121 207.596 388.358 206.04 389.389 205.246C390.056 204.732 391.107 204.633 391.701 205.23C392.061 205.592 392.187 206.121 392.278 206.623C392.405 207.322 392.495 208.028 392.547 208.737C393.43 208.766 394.315 208.711 395.188 208.574C394.869 207.052 394.55 205.529 394.231 204.007C395.16 203.771 396.104 203.596 397.055 203.485C397.251 202.371 397.491 201.265 397.774 200.17C398.592 200.227 399.4 200.441 400.14 200.795C400.431 200.934 400.722 201.098 401.043 201.123C401.337 201.145 401.626 201.048 401.903 200.947C403.494 200.362 405.009 199.574 406.402 198.607C405.265 198.69 404.132 198.838 403.011 199.05C403.886 198.439 404.76 197.828 405.635 197.217C404.381 197.416 403.127 197.615 401.873 197.815C401.568 197.863 401.261 197.912 400.952 197.898C400.523 197.879 400.109 197.74 399.7 197.608C397.316 196.838 394.833 196.252 392.33 196.35C389.827 196.448 387.282 197.291 385.501 199.054C384.691 199.856 384.028 200.929 384.126 202.065C383.375 202.248 382.796 202.893 382.535 203.621C382.274 204.348 382.29 205.148 382.405 205.912C382.974 209.695 385.934 212.87 389.496 214.267" fill="#1B193B"/>
<path d="M383.634 202.344C382.918 202.579 382.19 202.817 381.437 202.847C380.684 202.878 379.888 202.675 379.357 202.14C379.001 201.781 378.791 201.305 378.595 200.839C378.193 199.884 377.811 198.814 378.151 197.835C378.345 197.278 378.755 196.821 379.214 196.452C379.664 196.09 380.183 195.793 380.753 195.697C381.848 195.512 382.971 196.119 383.633 197.011C384.295 197.902 384.558 199.032 384.642 200.139C384.705 200.976 384.6 201.962 383.89 202.411" fill="#1B193B"/>
<path d="M401.84 213.338C401.075 212.848 400.065 212.765 399.23 213.122C398.935 213.248 398.664 213.424 398.369 213.55C398.074 213.676 397.74 213.749 397.433 213.658C398.791 214.278 400.403 214.314 401.787 213.754C401.841 213.732 401.891 213.643 401.833 213.634" fill="#1B193B"/>
<path d="M399.646 207.939C399.629 207.939 399.611 207.939 399.594 207.939C398.629 207.939 398.627 209.439 399.594 209.439C399.611 209.439 399.629 209.439 399.646 209.439C400.612 209.439 400.613 207.939 399.646 207.939Z" fill="#1B193B"/>
<path d="M393.359 213.157C393.491 214.24 393.876 215.289 394.473 216.195C394.675 216.501 394.907 216.797 395.214 216.99C395.487 217.161 395.804 217.243 396.119 217.3C397.095 217.476 398.094 217.436 399.085 217.395C399.485 217.379 399.903 217.357 400.249 217.153C400.964 216.732 401.084 215.751 401.124 214.912C400.361 215.566 399.345 215.929 398.353 215.823C397.361 215.717 396.415 215.118 395.95 214.22C395.76 213.853 395.651 213.447 395.568 213.041C395.539 212.897 395.486 212.725 395.345 212.695C395.258 212.677 395.172 212.723 395.093 212.765C394.595 213.029 394.024 213.146 393.465 213.1" fill="#1B193B"/>
<path d="M400.6 218.41L397.303 223.19L397.187 218.01C397.661 218.03 398.134 218.06 398.608 218.11C399.305 218.18 399.972 218.28 400.6 218.41Z" fill="#66393B"/>
<path d="M379.003 227.987C377.119 235.238 375.28 242.516 373.508 249.799C372.622 253.441 371.758 257.087 370.929 260.737C370.115 264.383 369.294 268.052 368.7 271.683C368.563 272.566 368.42 273.537 368.42 274.253C368.422 274.326 368.432 274.308 368.42 274.343L368.411 274.362C368.407 274.348 368.398 274.312 368.386 274.291C368.376 274.268 368.354 274.24 368.344 274.228L368.347 274.227C368.336 274.232 368.477 274.367 368.614 274.468C368.908 274.69 369.279 274.92 369.663 275.133C371.217 275.993 372.936 276.741 374.642 277.464C378.075 278.901 381.585 280.215 385.104 281.497C392.149 284.048 399.261 286.455 406.394 288.772C406.657 288.856 406.802 289.137 406.719 289.4C406.637 289.657 406.363 289.801 406.105 289.729C398.88 287.655 391.686 285.496 384.526 283.181C380.948 282.016 377.379 280.82 373.837 279.48C372.064 278.799 370.306 278.112 368.541 277.216C368.098 276.987 367.656 276.743 367.188 276.416C366.95 276.238 366.715 276.082 366.416 275.715C366.303 275.621 366.037 275.098 366.051 274.972C366.01 274.775 365.966 274.526 365.959 274.365C365.925 273.201 366.056 272.306 366.163 271.331C366.651 267.532 367.346 263.842 368.039 260.135C368.745 256.436 369.485 252.748 370.247 249.065C371.771 241.699 373.357 234.357 374.996 227.012C375.244 225.901 376.346 225.201 377.457 225.449C378.568 225.697 379.268 226.799 379.02 227.91C379.016 227.93 379.011 227.951 379.006 227.971L379.003 227.987Z" fill="#1B193B"/>
<path d="M391 210.208C390.948 210.208 390.896 210.197 390.848 210.176C390.744 210.13 388.301 209.019 388.892 207.098C389.083 206.476 389.413 206.053 389.874 205.838C390.552 205.522 391.242 205.808 391.271 205.821C391.461 205.902 391.55 206.122 391.47 206.313C391.388 206.502 391.169 206.592 390.98 206.513C390.964 206.507 390.551 206.348 390.184 206.521C389.927 206.643 389.733 206.912 389.608 207.319C389.359 208.129 390.029 208.777 390.564 209.148L390.543 208.907C390.525 208.701 390.679 208.519 390.885 208.501C391.081 208.478 391.273 208.636 391.291 208.842L391.374 209.8C391.385 209.932 391.326 210.06 391.218 210.137C391.153 210.185 391.077 210.208 391 210.208Z" fill="#47222C"/>
</svg>
