<svg width="388" height="84" viewBox="0 0 388 84" fill="none" xmlns="http://www.w3.org/2000/svg">
<path d="M51.8125 28.0781L36.8281 82H21.2422L0.351562 3.08594H17.4688L29.8828 60.2344H30.3203L45.0859 3.08594H59.0312L73.7969 60.2344H74.2344L86.7031 3.08594H103.82L82.875 82H67.2891L52.3047 28.0781H51.8125ZM131.109 33.9297C124.109 33.9297 119.078 39.2344 118.531 46.5625H143.414C143.086 39.0703 138.219 33.9297 131.109 33.9297ZM143.633 64.0625H158.289C156.539 75.5469 146.039 83.2578 131.547 83.2578C113.5 83.2578 102.672 71.7188 102.672 52.9609C102.672 34.2578 113.609 22.1172 130.945 22.1172C148.008 22.1172 158.781 33.6562 158.781 51.4844V56.3516H118.367V57.3359C118.367 65.7031 123.672 71.4453 131.82 71.4453C137.672 71.4453 142.156 68.5469 143.633 64.0625Z" fill="#8986E2"/>
<path d="M203.242 82H183.336L156.812 3.08594H175.297L193.344 64.9922H193.727L211.773 3.08594H229.766L203.242 82ZM235.891 82V23.375H251.859V82H235.891ZM243.875 16.9219C239.062 16.9219 235.344 13.2578 235.344 8.66406C235.344 4.01562 239.062 0.40625 243.875 0.40625C248.688 0.40625 252.406 4.01562 252.406 8.66406C252.406 13.2578 248.688 16.9219 243.875 16.9219ZM298.836 82H263.891V3.08594H298.234C313.055 3.08594 322.352 10.6875 322.352 22.7734C322.352 31.4141 315.898 38.6328 307.531 39.8906V40.3281C318.25 41.1484 326.125 48.9688 326.125 59.4141C326.125 73.3047 315.68 82 298.836 82ZM280.406 15.3906V35.8984H292.273C301.078 35.8984 306.109 32.0156 306.109 25.3438C306.109 19 301.68 15.3906 293.969 15.3906H280.406ZM280.406 69.6953H294.625C304.141 69.6953 309.281 65.6484 309.281 58.1016C309.281 50.7188 303.977 46.7812 294.242 46.7812H280.406V69.6953ZM387.812 68.3281V82H335.531V3.08594H387.812V16.7031H352.047V35.7344H385.789V48.4219H352.047V68.3281H387.812Z" fill="white"/>
</svg>
