<svg width="546" height="99" viewBox="0 0 546 99" fill="none" xmlns="http://www.w3.org/2000/svg">
<path d="M17.36 63.736V53.096H37.184C41.1413 53.096 44.2027 52.088 46.368 50.072C48.608 47.9813 49.728 45.1067 49.728 41.448C49.728 38.1627 48.6453 35.4 46.48 33.16C44.3147 30.92 41.2533 29.8 37.296 29.8H17.36V18.6H37.856C42.784 18.6 47.1147 19.608 50.848 21.624C54.5813 23.5653 57.456 26.2533 59.472 29.688C61.5627 33.048 62.608 36.8933 62.608 41.224C62.608 45.7787 61.5627 49.736 59.472 53.096C57.456 56.456 54.5813 59.0693 50.848 60.936C47.1147 62.8027 42.784 63.736 37.856 63.736H17.36ZM8.512 97V18.6H21.392V97H8.512ZM51.52 97L24.08 62.952L36.064 58.584L67.76 97H51.52ZM98.6283 98.12C93.4016 98.12 88.6603 96.888 84.4043 94.424C80.1483 91.8853 76.7509 88.488 74.2123 84.232C71.7483 79.976 70.5163 75.2347 70.5163 70.008C70.5163 64.7813 71.7483 60.0773 74.2123 55.896C76.7509 51.7147 80.1483 48.392 84.4043 45.928C88.6603 43.3893 93.4016 42.12 98.6283 42.12C103.93 42.12 108.708 43.352 112.964 45.816C117.22 48.28 120.58 51.64 123.044 55.896C125.583 60.0773 126.852 64.7813 126.852 70.008C126.852 75.2347 125.583 79.976 123.044 84.232C120.58 88.488 117.22 91.8853 112.964 94.424C108.708 96.888 103.93 98.12 98.6283 98.12ZM98.6283 86.248C101.69 86.248 104.378 85.576 106.692 84.232C109.082 82.8133 110.911 80.872 112.18 78.408C113.524 75.944 114.196 73.144 114.196 70.008C114.196 66.872 113.524 64.1093 112.18 61.72C110.836 59.3307 109.007 57.464 106.692 56.12C104.378 54.7013 101.69 53.992 98.6283 53.992C95.6416 53.992 92.9536 54.7013 90.5643 56.12C88.2496 57.464 86.4203 59.3307 85.0763 61.72C83.8069 64.1093 83.1723 66.872 83.1723 70.008C83.1723 73.144 83.8069 75.944 85.0763 78.408C86.4203 80.872 88.2496 82.8133 90.5643 84.232C92.9536 85.576 95.6416 86.248 98.6283 86.248ZM161.738 98.12C156.511 98.12 151.77 96.888 147.514 94.424C143.258 91.8853 139.86 88.488 137.322 84.232C134.858 79.976 133.626 75.2347 133.626 70.008C133.626 64.7813 134.858 60.0773 137.322 55.896C139.86 51.7147 143.258 48.392 147.514 45.928C151.77 43.3893 156.511 42.12 161.738 42.12C167.039 42.12 171.818 43.352 176.074 45.816C180.33 48.28 183.69 51.64 186.154 55.896C188.692 60.0773 189.962 64.7813 189.962 70.008C189.962 75.2347 188.692 79.976 186.154 84.232C183.69 88.488 180.33 91.8853 176.074 94.424C171.818 96.888 167.039 98.12 161.738 98.12ZM161.738 86.248C164.799 86.248 167.487 85.576 169.802 84.232C172.191 82.8133 174.02 80.872 175.29 78.408C176.634 75.944 177.306 73.144 177.306 70.008C177.306 66.872 176.634 64.1093 175.29 61.72C173.946 59.3307 172.116 57.464 169.802 56.12C167.487 54.7013 164.799 53.992 161.738 53.992C158.751 53.992 156.063 54.7013 153.674 56.12C151.359 57.464 149.53 59.3307 148.186 61.72C146.916 64.1093 146.282 66.872 146.282 70.008C146.282 73.144 146.916 75.944 148.186 78.408C149.53 80.872 151.359 82.8133 153.674 84.232C156.063 85.576 158.751 86.248 161.738 86.248ZM200.207 97V43.24H212.527V97H200.207ZM235.935 97V64.968C235.935 61.384 234.815 58.6213 232.575 56.68C230.335 54.664 227.572 53.656 224.287 53.656C222.047 53.656 220.031 54.104 218.239 55C216.522 55.896 215.14 57.2027 214.095 58.92C213.05 60.5627 212.527 62.5787 212.527 64.968L207.711 62.28C207.711 58.1733 208.607 54.6267 210.399 51.64C212.191 48.6533 214.618 46.3387 217.679 44.696C220.74 42.9787 224.175 42.12 227.983 42.12C231.791 42.12 235.226 42.9413 238.287 44.584C241.348 46.2267 243.775 48.5413 245.567 51.528C247.359 54.5147 248.255 58.0987 248.255 62.28V97H235.935ZM271.663 97V64.968C271.663 61.384 270.543 58.6213 268.303 56.68C266.063 54.664 263.3 53.656 260.015 53.656C257.85 53.656 255.871 54.104 254.079 55C252.287 55.896 250.868 57.2027 249.823 58.92C248.778 60.5627 248.255 62.5787 248.255 64.968L241.311 62.28C241.684 58.1733 242.879 54.6267 244.895 51.64C246.911 48.6533 249.487 46.3387 252.623 44.696C255.834 42.9787 259.343 42.12 263.151 42.12C267.034 42.12 270.543 42.9413 273.679 44.584C276.815 46.2267 279.316 48.5413 281.183 51.528C283.05 54.5147 283.983 58.0987 283.983 62.28V97H271.663ZM408.875 98.12C404.022 98.12 399.617 96.888 395.659 94.424C391.777 91.96 388.678 88.6373 386.363 84.456C384.123 80.2 383.003 75.4587 383.003 70.232C383.003 64.9307 384.123 60.1893 386.363 56.008C388.678 51.752 391.777 48.392 395.659 45.928C399.617 43.3893 404.022 42.12 408.875 42.12C412.982 42.12 416.603 43.016 419.739 44.808C422.95 46.5253 425.489 48.9147 427.355 51.976C429.222 55.0373 430.155 58.5093 430.155 62.392V77.848C430.155 81.7307 429.222 85.2027 427.355 88.264C425.563 91.3253 423.062 93.752 419.851 95.544C416.641 97.2613 412.982 98.12 408.875 98.12ZM410.891 86.472C415.446 86.472 419.105 84.9413 421.867 81.88C424.705 78.8187 426.123 74.8987 426.123 70.12C426.123 66.9093 425.489 64.072 424.219 61.608C422.95 59.144 421.158 57.24 418.843 55.896C416.603 54.4773 413.953 53.768 410.891 53.768C407.905 53.768 405.254 54.4773 402.939 55.896C400.699 57.24 398.907 59.144 397.563 61.608C396.294 64.072 395.659 66.9093 395.659 70.12C395.659 73.3307 396.294 76.168 397.563 78.632C398.907 81.096 400.699 83.0373 402.939 84.456C405.254 85.8 407.905 86.472 410.891 86.472ZM425.339 97V82.552L427.467 69.448L425.339 56.456V43.24H437.659V97H425.339ZM459.508 97V20.84H471.828V97H459.508ZM446.628 54.44V43.24H484.708V54.44H446.628ZM517.105 98.12C511.729 98.12 506.876 96.9253 502.545 94.536C498.289 92.072 494.892 88.712 492.353 84.456C489.889 80.2 488.657 75.4213 488.657 70.12C488.657 64.8187 489.889 60.0773 492.353 55.896C494.817 51.64 498.14 48.28 502.321 45.816C506.577 43.352 511.281 42.12 516.433 42.12C521.436 42.12 525.841 43.2773 529.649 45.592C533.532 47.9067 536.556 51.08 538.721 55.112C540.961 59.144 542.081 63.736 542.081 68.888C542.081 69.784 542.006 70.7173 541.857 71.688C541.782 72.584 541.633 73.592 541.409 74.712H497.281V64.632H535.025L530.433 68.664C530.284 65.3787 529.649 62.616 528.529 60.376C527.409 58.136 525.804 56.4187 523.713 55.224C521.697 54.0293 519.196 53.432 516.209 53.432C513.073 53.432 510.348 54.104 508.033 55.448C505.718 56.792 503.926 58.696 502.657 61.16C501.388 63.5493 500.753 66.424 500.753 69.784C500.753 73.144 501.425 76.0933 502.769 78.632C504.113 81.1707 506.017 83.1493 508.481 84.568C510.945 85.912 513.782 86.584 516.993 86.584C519.756 86.584 522.294 86.0987 524.609 85.128C526.998 84.1573 529.014 82.7387 530.657 80.872L538.497 88.824C535.884 91.8853 532.71 94.2 528.977 95.768C525.244 97.336 521.286 98.12 517.105 98.12Z" fill="#111111"/>
<path opacity="0.8" d="M330.937 57.8344C334.299 60.2538 338.986 59.4896 341.405 56.1274C343.824 52.7653 343.06 48.0785 339.698 45.6591L330.937 57.8344ZM309.03 32.8305L304.649 38.9182L309.03 32.8305ZM309.817 97V36.2701H294.817V97H309.817ZM304.649 38.9182L330.937 57.8344L339.698 45.6591L313.411 26.7428L304.649 38.9182ZM309.817 36.2701C309.817 38.9289 306.808 40.4711 304.649 38.9182L313.411 26.7428C305.646 21.1555 294.817 26.7042 294.817 36.2701H309.817Z" fill="#FFB800"/>
<path opacity="0.8" d="M339.698 57.8344C336.336 60.2538 331.649 59.4896 329.23 56.1274C326.81 52.7653 327.575 48.0785 330.937 45.6591L339.698 57.8344ZM361.605 32.8305L365.985 38.9182L361.605 32.8305ZM360.817 97V36.2701H375.817V97H360.817ZM365.985 38.9182L339.698 57.8344L330.937 45.6591L357.224 26.7428L365.985 38.9182ZM360.817 36.2701C360.817 38.9289 363.827 40.4711 365.985 38.9182L357.224 26.7428C364.988 21.1555 375.817 26.7042 375.817 36.2701H360.817Z" fill="#FFB800"/>
<circle cx="306.554" cy="10.5941" r="10.5941" fill="#FFB800"/>
<circle cx="364.406" cy="10.5941" r="10.5941" fill="#FFB800"/>
</svg>
