<svg width="98" height="97" viewBox="0 0 98 97" fill="none" xmlns="http://www.w3.org/2000/svg">
<path opacity="0.8" d="M45.2961 57.8344C48.6582 60.2538 53.345 59.4896 55.7644 56.1274C58.1838 52.7653 57.4196 48.0785 54.0574 45.6591L45.2961 57.8344ZM23.3895 32.8305L19.0089 38.9182L23.3895 32.8305ZM24.1768 97V36.2701H9.17676V97H24.1768ZM19.0089 38.9182L45.2961 57.8344L54.0574 45.6591L27.7702 26.7428L19.0089 38.9182ZM24.1768 36.2701C24.1768 38.9289 21.167 40.4711 19.0089 38.9182L27.7702 26.7428C20.0057 21.1555 9.17676 26.7042 9.17676 36.2701H24.1768Z" fill="#FFB800"/>
<path opacity="0.8" d="M54.0574 57.8344C50.6953 60.2538 46.0085 59.4896 43.5891 56.1274C41.1697 52.7653 41.934 48.0785 45.2961 45.6591L54.0574 57.8344ZM75.964 32.8305L80.3447 38.9182L75.964 32.8305ZM75.1768 97V36.2701H90.1768V97H75.1768ZM80.3447 38.9182L54.0574 57.8344L45.2961 45.6591L71.5833 26.7428L80.3447 38.9182ZM75.1768 36.2701C75.1768 38.9289 78.1866 40.4711 80.3447 38.9182L71.5833 26.7428C79.3478 21.1555 90.1768 26.7042 90.1768 36.2701H75.1768Z" fill="#FFB800"/>
<circle cx="20.9134" cy="10.5941" r="10.5941" fill="#FFB800"/>
<circle cx="78.765" cy="10.5941" r="10.5941" fill="#FFB800"/>
</svg>
